<svg width="32" height="33" viewBox="0 0 32 33" fill="none" xmlns="http://www.w3.org/2000/svg">
<g clip-path="url(#clip0_2013_3736)">
<path d="M17.3905 29.4767C17.2783 30.1355 16.7873 32.9383 16.0196 33C15.3491 33.0543 14.8879 30.9003 14.7808 30.3822C14.3321 28.2233 14.0729 25.5093 13.9432 23.2764C13.6715 18.6404 13.6715 14.0117 13.9657 9.3757C14.0878 7.44135 14.2748 5.5292 14.5888 3.62445C14.696 2.97802 15.2095 0 15.9922 0C16.7748 0 17.2783 2.86452 17.3905 3.51589C18.5421 10.2368 18.5446 22.7558 17.3905 29.4767Z" fill="#1B112E"/>
<path d="M12.5153 28.6477C12.4256 29.2127 11.9644 31.9464 11.264 31.9045C10.4814 31.8576 10.0028 28.4527 9.91055 27.7693C9.04063 21.4308 9.03066 10.8067 10.0202 4.5003C10.1149 3.89828 10.5686 1.12011 11.269 1.09297C11.9694 1.06583 12.4281 3.80699 12.5203 4.38187C12.7646 5.90912 12.9291 7.43638 13.0363 8.99324C13.3802 13.9944 13.3802 18.9956 13.0363 23.9993C12.9291 25.571 12.7621 27.1081 12.5153 28.6477Z" fill="#1B112E"/>
<path d="M21.9628 28.6034C21.8705 29.1733 21.4119 31.9194 20.719 31.9071C20.026 31.8947 19.5674 29.1585 19.4727 28.5639C19.1835 26.7504 19.014 24.937 18.9043 23.089C18.6451 18.7021 18.6426 14.3227 18.9043 9.93337C19.0115 8.10511 19.1785 6.31139 19.4602 4.5152C19.5524 3.91812 20.0111 1.08567 20.7239 1.08814C21.4368 1.0906 21.883 3.8589 21.9777 4.45105C22.222 5.99311 22.384 7.53023 22.4887 9.09943C22.8227 14.0389 22.8227 18.9785 22.4887 23.918C22.3815 25.4995 22.217 27.049 21.9702 28.6009L21.9628 28.6034Z" fill="#1B112E"/>
<path d="M25.8734 27.0046C25.8061 27.4931 25.4496 29.9604 24.9087 29.99C24.3679 30.0196 24.0014 27.5523 23.9366 27.0885C23.7447 25.7142 23.6176 24.3547 23.5353 22.9607C23.2786 18.6454 23.2786 14.3375 23.5353 10.0247C23.5902 9.08712 23.999 3.09407 24.8863 3.00525C25.4347 2.95097 25.8061 5.49968 25.8684 5.95119C26.6511 11.5815 26.6511 21.3693 25.8734 27.0046Z" fill="#1B112E"/>
<path d="M8.07651 27.0046C8.0117 27.4832 7.65028 29.9752 7.10938 29.99C6.56849 30.0048 6.20955 27.5893 6.14475 27.1205C5.95032 25.7364 5.82071 24.3646 5.73845 22.9607C5.48171 18.6355 5.48171 14.3178 5.73845 9.99261C5.8232 8.58626 5.95282 7.21444 6.14973 5.82783C6.21454 5.37384 6.57347 2.98551 7.10689 3.00278C7.64031 3.02005 8.0117 5.52188 8.079 6.01534C8.85171 11.6383 8.84922 21.3792 8.07402 27.0021L8.07651 27.0046Z" fill="#1B112E"/>
<path d="M29.3053 23.0174C29.2729 23.4714 29.0286 27.0219 28.5675 26.9972C28.1064 26.9725 27.8621 23.4616 27.8272 22.941C27.568 19.1068 27.5655 14.2586 27.8272 10.4219C27.8621 9.92353 28.1014 6.40765 28.5675 6.39531C28.7844 6.38791 28.9563 7.29587 28.9912 7.49819C29.4549 10.264 29.5197 14.9371 29.4972 17.8139C29.4823 19.5682 29.425 21.2755 29.3053 23.0199V23.0174Z" fill="#1B112E"/>
<path d="M3.44987 26.9946C3.22553 27.0736 3.0361 26.0645 3.00868 25.8893C2.56998 23.2764 2.48772 18.86 2.50019 16.146C2.51016 14.1623 2.565 12.2156 2.70458 10.2368C2.74197 9.70141 2.97627 6.47172 3.41996 6.39277C3.90352 6.30642 4.16026 10.2047 4.18519 10.6168C4.42697 14.6631 4.42946 18.6996 4.18519 22.746C4.1478 23.3529 3.91848 26.8293 3.44738 26.9946H3.44987Z" fill="#1B112E"/>
<path d="M0.560565 21.9268C0.271424 21.8356 0.136823 20.1504 0.116882 19.8839C-0.0376587 17.7547 -0.0376587 15.6476 0.116882 13.5183C0.136823 13.2445 0.276409 11.5568 0.543117 11.4927C0.80484 11.4927 0.954396 13.168 0.971844 13.4048C1.13386 15.5316 1.13386 17.6412 0.989293 19.7704C0.964367 20.1282 0.844722 21.6801 0.563058 21.9268H0.560565Z" fill="#1B112E"/>
<path d="M31.4615 21.9096C31.1873 21.8726 31.0428 20.1677 31.0253 19.9234C30.8683 17.8065 30.8683 15.7093 31.0153 13.5924C31.0353 13.2938 31.1749 11.5865 31.4441 11.4902C31.7332 11.4902 31.8778 13.3802 31.8952 13.6318C32.0373 15.6822 32.0373 17.7127 31.8952 19.7631C31.8753 20.0591 31.7432 21.7665 31.4615 21.9047V21.9096Z" fill="#1B112E"/>
</g>
<defs>
<clipPath id="clip0_2013_3736">
<rect width="32" height="33" fill="white"/>
</clipPath>
</defs>
</svg>
