<svg width="32" height="32" viewBox="0 0 32 32" fill="none" xmlns="http://www.w3.org/2000/svg">
<g clip-path="url(#clip0_2013_2988)">
<path d="M23.1276 4.32739H27.6307V8.83043C27.6307 9.10866 27.8561 9.3356 28.1358 9.3356H31.4529C31.7311 9.3356 31.9581 9.10866 31.9581 8.83043V0.505173C31.9581 0.226939 31.7327 0 31.4529 0H23.1292C22.851 0 22.624 0.226939 22.624 0.505173V3.82222C22.624 4.10045 22.8494 4.32739 23.1292 4.32739H23.1276Z" fill="#ECECEC"/>
<path d="M31.6161 13.8371H20.9095V18.0339L18.0339 20.9095H13.9676L11.092 18.0339V13.9676L13.9676 11.092H18.1645V0.383932C18.1645 0.170982 17.9919 0 17.7805 0H14.2226C14.0096 0 13.8386 0.172536 13.8386 0.383932V10.7765L6.48798 3.42896C6.3372 3.27819 6.09472 3.27819 5.94395 3.42896L3.42741 5.9455C3.27663 6.09627 3.27663 6.33876 3.42741 6.48953L10.7765 13.8386H0.383932C0.170982 13.8386 0 14.0112 0 14.2226V17.7805C0 17.9935 0.172536 18.1645 0.383932 18.1645H10.7765L3.42741 25.5136C3.27663 25.6644 3.27663 25.9068 3.42741 26.0576L5.94395 28.5742C6.09472 28.7249 6.3372 28.7249 6.48798 28.5742L13.8371 21.225V31.6176C13.8371 31.8306 14.0096 32.0016 14.221 32.0016H17.779C17.9919 32.0016 18.1629 31.829 18.1629 31.6176V21.225L25.512 28.5742C25.6628 28.7249 25.9053 28.7249 26.0561 28.5742L28.5726 26.0576C28.7234 25.9068 28.7234 25.6644 28.5726 25.5136L21.2235 18.1645H31.6161C31.829 18.1645 32 17.9919 32 17.7805V14.2226C32 14.0096 31.8275 13.8386 31.6161 13.8386V13.8371Z" fill="#ECECEC"/>
</g>
<defs>
<clipPath id="clip0_2013_2988">
<rect width="32" height="32" fill="white"/>
</clipPath>
</defs>
</svg>
