<svg width="32" height="25" viewBox="0 0 32 25" fill="none" xmlns="http://www.w3.org/2000/svg">
<g clip-path="url(#clip0_2013_3758)">
<path d="M24.3625 14.752C21.3432 20.2911 22.8437 25.0404 20.4535 25C19.9365 24.991 19.2503 24.3678 19.1405 23.7243C18.8638 22.1112 17.9031 14.9163 16.1167 14.7408C14.1267 14.5473 13.1523 22.0707 12.8755 23.7311C12.784 24.2733 12.1801 24.9032 11.7501 24.9775C11.1623 25.0787 10.3434 24.5792 10.2222 23.9223L9.41473 19.5734C9.18599 18.336 8.06519 13.9758 6.53495 14.1716C6.22616 14.2121 5.64289 14.6688 5.57198 14.968L4.85147 17.9243C4.76226 18.2887 4.35054 18.7387 3.99828 18.7545C2.2965 18.8264 3.84046 14.3178 0 12.5067C3.88163 10.6304 2.23245 6.3332 4.00057 6.25445C4.35511 6.2387 4.75082 6.70892 4.8446 7.09139L5.56283 10.0454C5.63831 10.3514 6.23302 10.8148 6.5441 10.8441C8.06519 10.9926 9.15168 6.81916 9.37355 5.64025L10.2427 1.02137C10.3365 0.517412 11.1348 -0.0180453 11.5671 -4.67442e-05C12.1367 0.0247013 12.7794 0.695148 12.8869 1.34085C13.1591 2.97422 14.1267 10.1309 15.9131 10.2636C17.9054 10.4099 18.8432 3.03721 19.1291 1.34085C19.2229 0.780641 19.7833 0.130443 20.2385 0.0359504C20.7851 -0.0765406 21.6612 0.400421 21.7778 1.03262L22.5647 5.29153C22.798 6.55593 23.9005 11.0488 25.4788 10.8441C25.7876 10.8036 26.3754 10.3491 26.4578 10.0117L27.16 7.10263C27.2423 6.76066 27.6746 6.2792 28.0132 6.25895C29.6944 6.15996 28.171 10.6821 31.9954 12.509C28.1687 14.3516 29.7195 18.759 28.0132 18.7522C26.4555 18.7455 27.3247 14.4303 25.4445 14.1671C25.1357 14.1243 24.5249 14.4415 24.3557 14.752H24.3625Z" fill="#1B112E"/>
</g>
<defs>
<clipPath id="clip0_2013_3758">
<rect width="32" height="25" fill="white"/>
</clipPath>
</defs>
</svg>
