<svg width="32" height="26" viewBox="0 0 32 26" fill="none" xmlns="http://www.w3.org/2000/svg">
<g clip-path="url(#clip0_2462_48061)">
<path d="M27.5115 12.9999C27.5115 9.14607 25.5986 5.73301 22.6711 3.64526L21.1133 5.82831C23.3574 7.42762 24.8227 10.0455 24.8227 12.9999C24.8227 15.9543 23.3544 18.5722 21.1133 20.1715L22.6711 22.3545C25.5986 20.2698 27.5115 16.8537 27.5115 12.9999Z" fill="#1B112E"/>
<path d="M7.17415 12.9999C7.17415 10.0455 8.6424 7.42762 10.8836 5.82831L9.32579 3.64526C6.39825 5.73003 4.48535 9.14309 4.48535 12.9999C4.48535 16.8567 6.39825 20.2668 9.32579 22.3545L10.8836 20.1715C8.63941 18.5722 7.17415 15.9543 7.17415 12.9999Z" fill="#1B112E"/>
<path d="M29.3143 13C29.3143 17.4584 27.0999 21.4076 23.7158 23.817L25.2736 26C29.3411 23.1022 32.0001 18.3578 32.0001 13C32.0001 7.64215 29.3411 2.89782 25.2736 0L23.7158 2.18305C27.0999 4.59542 29.3143 8.54456 29.3143 13Z" fill="#1B112E"/>
<path d="M2.68582 13C2.68582 8.54158 4.90012 4.59244 8.28425 2.18305L6.72648 0C2.65896 2.89782 0 7.64215 0 13C0 18.3578 2.65896 23.1022 6.72648 26L8.28425 23.817C4.90012 21.4046 2.68582 17.4554 2.68582 13Z" fill="#1B112E"/>
<path d="M22.8207 13.0001C22.8207 10.7158 21.6867 8.69356 19.9528 7.46057C18.8367 6.66539 17.4729 6.19482 15.9987 6.19482C14.5245 6.19482 13.1607 6.66539 12.0446 7.46057C10.3108 8.69654 9.17676 10.7188 9.17676 13.0001C9.17676 15.2814 10.3108 17.3066 12.0446 18.5426C13.1607 19.3378 14.5245 19.8083 15.9987 19.8083C17.4729 19.8083 18.8367 19.3378 19.9528 18.5426C21.6867 17.3066 22.8207 15.2844 22.8207 13.0001ZM18.3951 16.3566C17.7177 16.839 16.894 17.1249 16.0017 17.1249C15.1094 17.1249 14.2828 16.839 13.6084 16.3566C12.5579 15.609 11.8685 14.385 11.8685 13.0001C11.8685 11.6152 12.5579 10.3912 13.6084 9.64362C14.2858 9.16115 15.1094 8.87524 16.0017 8.87524C16.894 8.87524 17.7206 9.16115 18.3951 9.64362C19.4455 10.3912 20.1349 11.6152 20.1349 13.0001C20.1349 14.385 19.4455 15.609 18.3951 16.3566Z" fill="#1B112E"/>
</g>
<defs>
<clipPath id="clip0_2462_48061">
<rect width="32" height="26" fill="white"/>
</clipPath>
</defs>
</svg>
