<svg width="32" height="33" viewBox="0 0 32 33" fill="none" xmlns="http://www.w3.org/2000/svg">
<g clip-path="url(#clip0_2010_2980)">
<path d="M29.965 19.0707C29.4056 18.8084 28.8089 18.6497 28.1936 18.6175L27.0748 18.5554C26.8813 18.5439 26.6879 18.5416 26.4944 18.537C25.9117 18.4979 25.3337 18.4496 24.744 18.3668C23.9235 18.2517 23.1707 17.0624 23.4504 16.7311C23.4713 16.7127 23.4946 16.6943 23.5156 16.6805C23.5343 16.6713 23.5552 16.6621 23.5809 16.6552C24.7836 16.3769 25.8348 15.7396 26.5853 14.7711L26.6809 14.6492C26.6949 14.6308 26.7112 14.6124 26.7252 14.594L28.2822 12.5903C28.3684 12.496 28.457 12.4017 28.5479 12.3074C28.7786 12.1003 29.0583 11.9209 29.3031 11.746C29.5898 11.5413 29.8765 11.424 30.1492 11.3619C30.4615 11.3044 30.7948 11.2975 31.1654 11.3228C31.3962 11.3458 31.5896 11.378 31.7341 11.3757C31.7458 11.3757 31.7598 11.378 31.7714 11.3803C31.7738 11.3803 31.7761 11.3757 31.7784 11.3734C31.7831 11.3734 31.7854 11.3734 31.7901 11.3734C32.0068 11.3504 31.9859 11.2284 31.8064 11.0766C31.5943 10.8144 30.8531 10.605 30.6643 10.5475C27.4757 9.59282 25.378 13.0826 23.4084 13.0826C22.9819 13.0274 22.5437 12.8135 22.2616 12.5696C22.1078 12.4385 22.2919 12.1854 22.3758 12.0796C23.3944 10.8121 23.5179 9.73775 23.5529 8.42649C23.5762 8.02622 23.5949 7.54542 23.5809 7.18425C23.5832 7.10603 23.5855 7.02552 23.5902 6.9427C23.6088 6.52862 23.6764 6.11914 23.7184 5.69126C23.8256 4.58704 24.6927 3.64615 25.6577 3.26658C25.8185 3.20447 25.9653 2.54654 23.9655 3.33099C23.1683 3.64385 22.6182 4.29718 22.1964 5.00572C21.6906 5.85919 21.4319 6.71956 21.1638 7.48101C20.9773 7.9503 20.7652 8.40809 20.5088 8.83597C19.9518 9.76306 18.6838 9.9724 18.5113 9.4893C18.467 9.26386 18.6325 8.89809 18.4903 8.15274C18.3528 7.4281 18.1361 6.74486 17.7048 6.13524L16.5464 4.49042C15.6281 3.18836 14.9871 1.94612 15.8751 0.377209C15.9497 0.248384 15.9194 0.0344417 15.8029 -0.00236552C15.719 -0.029971 15.5279 0.0321413 15.4603 0.110357C14.4044 1.3365 14.2203 1.64016 14.176 3.20907C14.1503 4.07174 14.4533 4.8746 14.6678 5.69126L14.9918 6.9174C14.9988 6.945 15.0057 6.97261 15.0127 7.00021C15.0104 7.22336 15.05 7.4626 15.0687 7.56382C15.1876 8.23096 14.9591 8.74856 14.4743 9.20405C14.3834 9.28916 14.2366 9.41109 14.134 9.43409C14.0151 9.42949 13.9009 9.34668 13.7867 9.22475C13.7051 9.13043 13.6142 9.01311 13.5093 8.87738C13.3928 8.71865 13.2739 8.55762 13.1481 8.4311C13.0758 8.35748 12.9989 8.28617 12.922 8.21715C12.6446 7.9503 12.295 7.67885 11.8451 7.4488C11.4419 7.22106 11.013 7.03472 10.5702 6.88519L10.5585 6.88059C10.2858 6.76097 10.0084 6.65515 9.71942 6.59763L9.35348 6.47341C8.75445 6.27097 8.17174 6.09384 7.64964 5.73727C5.92249 4.56403 6.58445 3.06644 6.02272 3.21827C5.94347 3.23897 5.8549 3.3862 5.83858 3.49662C5.61715 4.8884 5.90384 5.97651 6.65437 6.9105C6.67535 6.96111 6.70099 7.00942 6.72896 7.03932C7.87573 8.32067 8.90829 8.59443 10.1413 10.0138C10.2042 10.0851 10.2555 10.1633 10.3021 10.2462C10.3977 10.4486 10.4536 10.6556 10.4793 10.8512C10.5119 11.2169 10.428 11.5942 10.2485 11.8956C10.2229 11.9393 10.1856 11.9623 10.1413 11.9715C10.0504 11.9715 9.93618 11.9393 9.78934 11.891C9.75671 11.8772 9.72641 11.8634 9.7031 11.8542C9.48167 11.7714 9.26024 11.7092 9.04114 11.6632C8.53069 11.5436 7.84776 11.4746 6.93873 11.6517C6.02272 11.8082 5.12535 12.1233 4.21865 12.3925C3.76181 12.5282 3.3609 12.6041 3.00895 12.634C2.06263 12.703 1.15361 12.4684 0.389093 11.585C0.333153 11.5206 0.169995 11.4861 0.10007 11.5114C0.0371372 11.5367 0.0114981 11.5965 0.0161597 11.6839C0.00450558 12.121 0.948493 13.4921 2.05098 13.9177C2.61038 14.1799 3.20707 14.3387 3.82008 14.3709L4.93888 14.433C5.13234 14.4445 5.3258 14.4468 5.51926 14.4514C6.10196 14.4905 6.68234 14.5388 7.26971 14.6216C8.09017 14.7366 8.84302 15.926 8.56332 16.2572C8.54235 16.2756 8.51904 16.294 8.49806 16.3078C8.47941 16.317 8.45844 16.3263 8.4328 16.3332C7.23009 16.6115 6.17888 17.2487 5.42835 18.2172L5.33279 18.3391C5.3188 18.3576 5.30249 18.376 5.2885 18.3944L3.73151 20.3981C3.64527 20.4924 3.55669 20.5867 3.46579 20.681C3.23504 20.8881 2.95534 21.0675 2.7106 21.2423C2.42391 21.4471 2.13722 21.5644 1.86451 21.6265C1.54985 21.684 1.21887 21.6909 0.848267 21.6656C0.617515 21.6426 0.424055 21.6104 0.279544 21.6127C0.26789 21.6127 0.253905 21.6104 0.242251 21.6081C0.23992 21.6081 0.237589 21.6127 0.235258 21.615C0.230596 21.615 0.228266 21.615 0.223604 21.615C0.0068364 21.638 0.0278139 21.7599 0.207288 21.9118C0.419394 22.174 1.1606 22.3833 1.3494 22.4409C4.53798 23.3955 6.63572 19.9058 8.60528 19.9058C9.03182 19.961 9.47002 20.1749 9.75205 20.4188C9.90588 20.5499 9.72175 20.8029 9.63784 20.9088C8.61926 22.1763 8.49573 23.2506 8.46077 24.5619C8.43746 24.9622 8.41881 25.4429 8.4328 25.8041C8.43047 25.8846 8.42813 25.9629 8.42347 26.0457C8.40483 26.4597 8.33723 26.8692 8.29528 27.2971C8.18806 28.4013 7.32099 29.3422 6.35603 29.7218C6.1952 29.7839 6.04835 30.4418 8.04821 29.6574C8.84535 29.3445 9.39543 28.6912 9.81731 27.9826C10.3231 27.1292 10.5818 26.2688 10.8499 25.5074C11.0363 25.0381 11.2484 24.5803 11.5048 24.1524C12.0619 23.2253 13.3299 23.016 13.5024 23.4991C13.5466 23.7245 13.3812 24.0903 13.5233 24.8356C13.6609 25.5603 13.8776 26.2435 14.3088 26.8531L15.4673 28.4979C16.3856 29.8 17.0266 31.0422 16.1385 32.6112C16.0639 32.74 16.0942 32.9539 16.2108 32.9907C16.2947 33.0183 16.4858 32.9562 16.5534 32.878C17.6093 31.6519 17.7934 31.3482 17.8377 29.7793C17.8633 28.9166 17.5603 28.1138 17.3459 27.2971L17.0219 26.071C17.0149 26.0434 17.0079 26.0158 17.0009 25.9882C17.0033 25.765 16.9636 25.5258 16.945 25.4245C16.8261 24.7574 17.0545 24.2398 17.5394 23.7843C17.6303 23.6992 17.7771 23.5773 17.8797 23.5543C17.9985 23.5589 18.1127 23.6417 18.227 23.7613C18.3085 23.8556 18.3994 23.973 18.5043 24.1087C18.6209 24.2674 18.7397 24.4284 18.8656 24.555C18.9379 24.6286 19.0148 24.6999 19.0917 24.7689C19.3691 25.0358 19.7187 25.3072 20.1685 25.5373C20.5718 25.765 21.003 25.9513 21.4435 26.1009L21.4552 26.1055C21.7279 26.2251 22.0052 26.3309 22.2943 26.3884L22.6602 26.5127C23.2592 26.7151 23.8419 26.8922 24.364 27.2488C26.0912 28.422 25.4292 29.9196 25.991 29.7678C26.0702 29.7471 26.1588 29.5999 26.1751 29.4894C26.3965 28.0977 26.1098 27.0096 25.3593 26.0756C25.3383 26.025 25.3127 25.9767 25.2847 25.9467C24.1379 24.6654 23.1054 24.3916 21.8724 22.9723C21.8094 22.9009 21.7582 22.8227 21.7116 22.7399C21.616 22.5375 21.56 22.3304 21.5344 22.1349C21.5018 21.7691 21.5857 21.3918 21.7652 21.0905C21.7908 21.0468 21.8281 21.0238 21.8724 21.0146C21.9633 21.0146 22.0775 21.0468 22.2243 21.0951C22.257 21.1089 22.2873 21.1227 22.3106 21.1319C22.532 21.2147 22.7534 21.2768 22.9725 21.3228C23.483 21.4425 24.1659 21.5115 25.0749 21.3343C25.991 21.1779 26.8883 20.8627 27.795 20.5936C28.2519 20.4579 28.6528 20.382 29.0047 20.352C29.951 20.283 30.8601 20.5177 31.6246 21.4011C31.6805 21.4655 31.8437 21.5 31.9136 21.4747C31.9765 21.4494 32.0022 21.3895 31.9975 21.3021C32.0092 20.865 31.0652 19.494 29.9627 19.0684L29.965 19.0707Z" fill="#ECECEC"/>
</g>
<defs>
<clipPath id="clip0_2010_2980">
<rect width="32" height="33" fill="white"/>
</clipPath>
</defs>
</svg>
