<svg width="35" height="35" viewBox="0 0 35 35" fill="none" xmlns="http://www.w3.org/2000/svg">
<path d="M25.6635 27.4778C25.5519 27.3604 25.5526 27.176 25.6649 27.0594L27.5597 25.0897C27.6886 24.9558 27.667 24.7375 27.5143 24.6317L25.6577 23.3375L29.5056 21.7352C29.8692 21.5832 30.1062 21.2275 30.1055 20.8335L30.0961 15.9883C30.0954 15.5951 29.8584 15.2415 29.4962 15.0902L26.4967 13.8415C28.6205 13.1026 29.8318 11.7011 30.0334 9.69619C30.0579 9.45133 29.862 9.23888 29.6165 9.23888H25.8947C25.7045 9.23888 25.5339 9.36635 25.4906 9.55143C25.2429 10.618 24.2419 11.4923 22.2413 11.4923C19.6537 11.4923 18.379 10.2824 18.379 8.19608C18.379 6.10977 19.6544 4.90061 22.2413 4.90061C24.203 4.90061 25.217 5.7929 25.4899 6.62109C25.5461 6.79248 25.7053 6.90843 25.8853 6.90843H29.579C29.8268 6.90843 30.0241 6.6931 29.9953 6.44753C29.6575 3.59063 26.9908 1.94434 22.2463 1.94434C22.2002 1.94434 22.1548 1.94578 22.1095 1.94578C22.1037 1.94578 22.0987 1.94434 22.0922 1.94434H4.78664C4.55618 1.94434 4.36894 2.13158 4.36894 2.36203V13.0176C4.36894 13.248 4.55618 13.4353 4.78664 13.4353H7.69826C7.92872 13.4353 8.11596 13.248 8.11596 13.0176V10.1168C8.11596 9.88631 8.3032 9.69907 8.53365 9.69907H14.3987C14.5045 10.2356 14.6716 10.7239 14.8941 11.166C14.0861 11.3374 13.2889 11.5981 12.5126 11.9517L4.98108 15.0909C4.61884 15.2422 4.3819 15.5958 4.38118 15.989L4.37038 20.8314C4.36966 21.226 4.6066 21.5825 4.971 21.7337L8.821 23.3347L6.96153 24.631C6.80886 24.7375 6.78725 24.955 6.91616 25.089L8.81092 27.0586C8.92326 27.1753 8.92398 27.3597 8.81236 27.4771L3.97429 32.5607C3.74816 32.7983 4.00814 33.1757 4.31061 33.049L14.0789 28.9606C14.2755 28.8785 14.3281 28.625 14.1805 28.4716L12.8201 27.0579C12.6919 26.9247 12.712 26.7086 12.8626 26.6013L14.3101 25.5672C16.2171 26.1541 18.258 26.1455 20.1672 25.5672L21.6147 26.6013C21.7652 26.7086 21.7847 26.9247 21.6572 27.0579L20.2968 28.4716C20.1492 28.625 20.2018 28.8785 20.3984 28.9606L30.1667 33.049C30.4691 33.1757 30.7291 32.7983 30.503 32.5607L25.6649 27.4778H25.6635ZM8.11596 6.60668V5.23117C8.11596 5.00071 8.3032 4.81347 8.53365 4.81347H15.1239C14.7299 5.44218 14.4664 6.17746 14.3425 7.02438H8.53365C8.3032 7.02438 8.11596 6.83713 8.11596 6.60668ZM15.8181 14.3974C16.6031 14.3974 17.239 15.0333 17.239 15.8183C17.239 16.6033 16.6031 17.2392 15.8181 17.2392C15.0331 17.2392 14.3972 16.6033 14.3972 15.8183C14.3972 15.0333 15.0331 14.3974 15.8181 14.3974ZM14.4512 21.6416L8.38242 19.1066C8.2247 19.0403 8.121 18.8869 8.12028 18.7155L8.11596 18.1185C8.11452 17.9442 8.21966 17.7872 8.38026 17.721L11.0391 16.6256C11.392 16.4801 11.7902 16.6839 11.8803 17.0548C12.478 19.5293 14.6349 21.2772 17.1691 21.3067C19.7466 21.3369 21.9928 19.5941 22.5949 17.0541C22.6827 16.6832 23.0817 16.4794 23.4346 16.6235L26.0704 17.7008C26.2281 17.7656 26.3325 17.9176 26.3354 18.0875L26.3476 18.7148C26.3512 18.8905 26.2461 19.0504 26.0833 19.1174L19.4161 21.8684C17.7503 22.5554 15.9982 22.2868 14.452 21.6408L14.4512 21.6416Z" fill="#ECECEC"/>
<path d="M31.0677 23.3356C29.4934 23.4926 28.2201 24.7659 28.0632 26.3401C27.8507 28.4668 29.6302 30.2463 31.7569 30.0346C33.3312 29.8776 34.6044 28.6043 34.7614 27.03C34.9738 24.9034 33.1943 23.1232 31.0677 23.3356ZM31.1512 29.2222C29.9586 29.1034 28.9943 28.1391 28.8748 26.9465C28.7135 25.3355 30.0616 23.9874 31.6726 24.148C32.8652 24.2668 33.8295 25.2311 33.9491 26.4237C34.1104 28.0347 32.7622 29.3828 31.1512 29.2222Z" fill="#ECECEC"/>
<path d="M33.3704 26.9579H32.3946C32.3449 26.9579 32.3003 26.9911 32.2888 27.04C32.2239 27.3195 31.9611 27.5492 31.4368 27.5492C30.7584 27.5492 30.4243 27.2316 30.4243 26.685C30.4243 26.1384 30.7584 25.8208 31.4368 25.8208C31.951 25.8208 32.2175 26.0548 32.2888 26.2716C32.3039 26.3163 32.3449 26.3472 32.3925 26.3472H33.3611C33.4259 26.3472 33.4778 26.2911 33.4706 26.2262C33.382 25.4773 32.6827 25.0459 31.439 25.0459C30.1203 25.0459 29.3447 25.5637 29.3447 26.685C29.3447 27.8063 30.1211 28.3241 31.439 28.3241C32.6884 28.3241 33.3993 27.8884 33.4806 27.0782C33.4871 27.0141 33.436 26.9587 33.3712 26.9587L33.3704 26.9579Z" fill="#ECECEC"/>
</svg>
