<svg width="32" height="32" viewBox="0 0 32 32" fill="none" xmlns="http://www.w3.org/2000/svg">
<path d="M14.0634 17.6217H7.37875V14.0638H14.0634V7.37915H17.6213V14.0638H24.3051V17.6217H17.6213V24.3055H14.0634V17.6217Z" fill="#1B112E"/>
<path fill-rule="evenodd" clip-rule="evenodd" d="M0 13.6552C0 8.88036 0 6.49294 0.92939 4.65974C1.7508 3.05581 3.05581 1.7508 4.65974 0.92939C6.48441 1.19209e-07 8.88036 0 13.6552 0H18.3448C23.1196 0 25.5071 1.19209e-07 27.3403 0.92939C28.9454 1.7458 30.2393 3.05036 31.0706 4.65974C32 6.48441 32 8.88036 32 13.6552V18.3448C32 23.1196 32 25.5071 31.0706 27.3403C30.2492 28.9442 28.9442 30.2492 27.3403 31.0706C25.5156 32 23.1196 32 18.3448 32H13.6552C8.88036 32 6.49294 32 4.65974 31.0706C3.05581 30.2492 1.7508 28.9442 0.92939 27.3403C0 25.5156 0 23.1196 0 18.3448V13.6552ZM13.6424 2.14442H18.332C20.7621 2.14442 22.446 2.14442 23.7677 2.25313C25.0573 2.35971 25.7991 2.55582 26.3682 2.84146C27.5686 3.45673 28.5454 4.43352 29.1607 5.63389C29.4463 6.19451 29.6424 6.93632 29.749 8.23448C29.8556 9.54969 29.8577 11.2401 29.8577 13.6701V18.3597C29.8577 20.7898 29.8577 22.4738 29.749 23.7954C29.6424 25.085 29.4463 25.8268 29.1607 26.396C28.5478 27.5981 27.5703 28.5755 26.3682 29.1884C25.8076 29.474 25.0658 29.6701 23.7677 29.7767C22.4524 29.8833 20.7621 29.8854 18.332 29.8854H13.6424C11.2124 29.8854 9.52838 29.8854 8.20677 29.7788C6.91713 29.6723 6.17533 29.474 5.60618 29.1884C4.40408 28.5755 3.42665 27.5981 2.81375 26.396C2.52811 25.8353 2.332 25.0957 2.22542 23.7954C2.11884 22.4801 2.11671 20.7898 2.11671 18.3597V13.6701C2.11671 11.2401 2.11671 9.55609 2.22542 8.23448C2.332 6.94484 2.52811 6.20304 2.81375 5.63389C3.42902 4.43352 4.4058 3.45673 5.60618 2.84146C6.1668 2.55582 6.90861 2.35971 8.20677 2.25313C9.52198 2.14655 11.2124 2.14442 13.6424 2.14442Z" fill="#1B112E"/>
</svg>
