<svg width="32" height="32" viewBox="0 0 32 32" fill="none" xmlns="http://www.w3.org/2000/svg">
<g clip-path="url(#clip0_2013_3013)">
<path d="M15.9984 0C7.17803 0 0 7.17803 0 15.9984C0 24.8187 7.17803 31.9967 15.9984 31.9967C24.8187 31.9967 31.9967 24.8187 31.9967 15.9984C31.9967 7.17803 24.822 0 15.9984 0ZM2.01419 16.9857H3.9856C4.07446 18.9439 4.4332 20.81 5.00915 22.5182H3.58737C2.70534 20.8429 2.15242 18.9736 2.01419 16.9857ZM22.8078 15.011C22.7584 13.1317 22.5741 11.2492 22.2516 9.47856H24.9075C25.5394 11.1538 25.9377 13.0231 26.0364 15.011H22.8078ZM19.7733 7.50715H16.9857V2.33344C18.029 3.07066 19.046 4.91371 19.7733 7.50715ZM15.011 2.33344V7.50715H12.2234C12.9507 4.917 13.9677 3.07066 15.011 2.33344ZM15.011 9.48185V15.0143H11.1669C11.2196 13.0034 11.4335 11.1373 11.7593 9.48185H15.0143H15.011ZM15.011 16.9857V22.5182H11.756C11.4302 20.8627 11.2163 18.9966 11.1636 16.9857H15.0077H15.011ZM15.011 24.4929V29.6666C13.9677 28.9293 12.9507 27.0863 12.2234 24.4929H15.011ZM16.9857 29.6666V24.4929H19.7733C19.046 27.083 18.029 28.9293 16.9857 29.6666ZM16.9857 22.5182V16.9857H20.8298C20.7771 18.9966 20.5632 20.8594 20.2374 22.5182H16.9824H16.9857ZM16.9857 15.011V9.47856H20.2407C20.5665 11.134 20.7804 13.0001 20.8331 15.011H16.989H16.9857ZM21.8237 7.50715C21.4189 5.91751 20.8956 4.48257 20.2538 3.29775C21.7316 4.26535 23.0151 5.71675 23.9992 7.50715H21.8237ZM11.7429 3.29446C11.1044 4.47928 10.5778 5.91422 10.173 7.50386H7.99753C8.9783 5.71346 10.2619 4.25877 11.7396 3.29446H11.7429ZM9.74514 9.48185C9.4259 11.2492 9.2383 13.135 9.18893 15.0143H5.9603C6.05904 13.0297 6.45727 11.1571 7.08917 9.48185H9.74185H9.74514ZM3.9856 15.011H2.01419C2.15242 13.0264 2.70534 11.1538 3.58737 9.47856H5.00915C4.4332 11.1867 4.07446 13.0495 3.9856 15.011ZM5.96359 16.9857H9.19222C9.24159 18.865 9.4259 20.7475 9.74843 22.5182H7.09575C6.46385 20.8429 6.06562 18.9736 5.96688 16.9857H5.96359ZM10.173 24.4929C10.5778 26.0825 11.1011 27.5174 11.7429 28.7023C10.2651 27.7346 8.98159 26.2832 8.00082 24.4929H10.1763H10.173ZM20.2571 28.7023C20.8956 27.5174 21.4222 26.0825 21.827 24.4929H24.0025C23.0217 26.2832 21.7381 27.7379 20.2571 28.7023ZM22.2516 22.5182C22.5708 20.7508 22.7584 18.865 22.8078 16.9857H26.0364C25.9377 18.9703 25.5394 20.8429 24.9075 22.5182H22.2516ZM28.0111 16.9857H29.9825C29.8443 18.9703 29.2914 20.8429 28.4093 22.5182H26.9876C27.5635 20.81 27.9222 18.9472 28.0111 16.9857ZM28.0111 15.011C27.9222 13.0528 27.5635 11.1867 26.9876 9.47856H28.4093C29.2914 11.1538 29.8443 13.0231 29.9825 15.011H28.0111ZM27.1488 7.50715H26.1944C25.783 6.63828 25.3124 5.82865 24.7858 5.08156C25.6678 5.79245 26.461 6.60537 27.1488 7.50715ZM7.21094 5.08156C6.68765 5.82865 6.21372 6.63828 5.80232 7.50715H4.84789C5.53574 6.60537 6.32891 5.79245 7.21094 5.08156ZM4.84789 24.4929H5.80232C6.21372 25.3617 6.68436 26.1713 7.21094 26.9184C6.32891 26.2075 5.53574 25.3946 4.84789 24.4929ZM24.7858 26.9184C25.3091 26.1713 25.783 25.3617 26.1944 24.4929H27.1488C26.461 25.3946 25.6678 26.2075 24.7858 26.9184Z" fill="#ECECEC"/>
</g>
<defs>
<clipPath id="clip0_2013_3013">
<rect width="32" height="32" fill="white"/>
</clipPath>
</defs>
</svg>
