<svg width="32" height="32" viewBox="0 0 32 32" fill="none" xmlns="http://www.w3.org/2000/svg">
<g clip-path="url(#clip0_2013_3760)">
<path d="M32 15.9987C32 24.8348 24.8374 31.9974 16.0013 31.9974C7.1652 31.9974 0 24.8348 0 15.9987C0 7.16257 7.16257 0 15.9987 0C24.8348 0 31.9974 7.16257 31.9974 15.9987H32ZM8.92821 15.1093C12.1411 15.4803 15.1198 13.0621 15.1251 9.77814L15.1356 1.93668C14.1067 2.22087 13.3436 2.79714 12.6726 3.54181C10.0939 6.39684 9.02031 11.3543 8.92821 15.1093ZM19.2826 3.49445C18.6222 2.77346 17.8696 2.21561 16.867 1.93668L16.8407 9.41238C16.8302 12.8542 19.6642 15.4961 23.0797 15.1145C22.9402 11.257 21.8903 6.35211 19.28 3.49708L19.2826 3.49445ZM10.7833 2.7182C5.62322 4.70488 2.05773 9.62026 1.74459 15.1303C4.53384 15.2724 6.91522 13.3542 7.46254 10.657C8.07828 7.68358 8.89927 5.30746 10.786 2.7182H10.7833ZM24.5296 10.6281C25.0795 13.3857 27.5135 15.2882 30.258 15.1251C29.9107 9.56237 26.3847 4.73382 21.2062 2.70504C21.985 3.81811 22.635 4.85223 23.1455 6.03898C23.7717 7.5257 24.2033 8.98874 24.5296 10.6281ZM8.84138 25.9294C8.21248 24.4243 7.79146 22.9718 7.4757 21.4088C6.95469 18.6616 4.51279 16.7092 1.73933 16.8723C2.08667 22.4324 5.61006 27.2609 10.7886 29.295C10.0097 28.1793 9.36239 27.1557 8.84138 25.9321V25.9294ZM15.1356 30.0686L15.1251 22.2192C15.1198 18.9327 12.1437 16.5197 8.92821 16.8881C9.01505 20.6194 10.0834 25.5532 12.6279 28.4082C13.3068 29.1713 14.0778 29.7739 15.1356 30.0712V30.0686ZM19.3089 28.4845C21.935 25.5216 22.9323 20.7615 23.077 16.8855C19.7115 16.5039 16.8434 19.0879 16.846 22.4876L16.8565 30.0554C17.8327 29.8239 18.5906 29.2265 19.3063 28.4819L19.3089 28.4845ZM21.2246 29.2871C26.4241 27.2346 29.9081 22.4061 30.258 16.8723C27.482 16.7092 25.0453 18.6616 24.5217 21.4088C24.2059 22.9718 23.7823 24.4296 23.1691 25.8952C22.6666 27.1083 21.9877 28.1582 21.2246 29.2844V29.2871Z" fill="#1B112E"/>
</g>
<defs>
<clipPath id="clip0_2013_3760">
<rect width="32" height="32" fill="white"/>
</clipPath>
</defs>
</svg>
