<svg width="32" height="18" viewBox="0 0 32 18" fill="none" xmlns="http://www.w3.org/2000/svg">
<g clip-path="url(#clip0_2462_48054)">
<path d="M8.63643 4.03586L6.39526 2.52393C5.18963 4.38337 4.48535 6.6086 4.48535 8.99844C4.48535 11.3883 5.18963 13.6166 6.39526 15.473L8.63643 13.961C7.71131 12.5375 7.17415 10.8304 7.17415 8.99539C7.17415 7.16034 7.7143 5.45636 8.63643 4.02977V4.03586Z" fill="#ECECEC"/>
<path d="M25.6015 2.52393L23.3604 4.03586C24.2855 5.4594 24.8226 7.16643 24.8226 9.00149C24.8226 10.8365 24.2825 12.5405 23.3604 13.9671L25.6015 15.479C26.8071 13.6196 27.5114 11.3944 27.5114 9.00454C27.5114 6.6147 26.8071 4.38946 25.6015 2.53002V2.52393Z" fill="#ECECEC"/>
<path d="M2.68582 8.99848C2.68582 6.2337 3.50051 3.65792 4.89415 1.50889L2.65299 0C0.978831 2.58188 0 5.67587 0 8.99848C0 12.3211 0.978831 15.4151 2.65299 17.997L4.89415 16.485C3.50051 14.336 2.68582 11.7602 2.68582 8.99543V8.99848Z" fill="#ECECEC"/>
<path d="M29.3138 8.99836C29.3138 11.7631 28.4991 14.3389 27.1055 16.4879L29.3466 17.9999C31.0208 15.418 31.9996 12.324 31.9996 9.00141C31.9996 5.6788 31.0208 2.58481 29.3466 0.00292969L27.1055 1.51487C28.4991 3.66389 29.3138 6.23663 29.3138 9.00445V8.99836Z" fill="#ECECEC"/>
<path d="M21.6896 5.16377C20.469 3.27994 18.3741 2.0332 16.0016 2.0332C13.6291 2.0332 11.5342 3.27994 10.3136 5.16377C9.60041 6.26419 9.18262 7.58409 9.18262 8.99849C9.18262 10.4129 9.60041 11.7328 10.3136 12.8332C11.5342 14.717 13.6291 15.9638 16.0016 15.9638C18.3741 15.9638 20.469 14.717 21.6896 12.8332C22.4028 11.7328 22.8206 10.4129 22.8206 8.99849C22.8206 7.58409 22.4028 6.26419 21.6896 5.16377ZM16.0016 13.2234C14.5632 13.2234 13.2949 12.4674 12.5548 11.3243C12.1221 10.6567 11.8684 9.8581 11.8684 8.99849C11.8684 8.13888 12.1221 7.34023 12.5548 6.67266C13.2949 5.52956 14.5632 4.77359 16.0016 4.77359C17.44 4.77359 18.7083 5.52956 19.4484 6.67266C19.8811 7.34023 20.1348 8.13888 20.1348 8.99849C20.1348 9.8581 19.8811 10.6567 19.4484 11.3243C18.7083 12.4674 17.44 13.2234 16.0016 13.2234Z" fill="#ECECEC"/>
</g>
<defs>
<clipPath id="clip0_2462_48054">
<rect width="32" height="18" fill="white"/>
</clipPath>
</defs>
</svg>
