<svg width="32" height="26" viewBox="0 0 32 26" fill="none" xmlns="http://www.w3.org/2000/svg">
<g clip-path="url(#clip0_2463_36104)">
<path d="M26.998 13C26.998 9.29226 25.2042 6.0086 22.4589 4L20.998 6.10029C23.1025 7.63897 24.4766 10.1576 24.4766 13C24.4766 15.8424 23.0997 18.361 20.998 19.8997L22.4589 22C25.2042 19.9943 26.998 16.7077 26.998 13Z" fill="#ECECEC"/>
<path d="M7.5195 13C7.5195 10.1576 8.89637 7.63897 10.998 6.10029L9.53723 4C6.79189 6.00573 4.99805 9.2894 4.99805 13C4.99805 16.7106 6.79189 19.9914 9.53723 22L10.998 19.8997C8.89357 18.361 7.5195 15.8424 7.5195 13Z" fill="#ECECEC"/>
<path d="M29.3143 13C29.3143 17.4584 27.0999 21.4076 23.7158 23.817L25.2736 26C29.3411 23.1022 32.0001 18.3578 32.0001 13C32.0001 7.64215 29.3411 2.89782 25.2736 0L23.7158 2.18305C27.0999 4.59542 29.3143 8.54456 29.3143 13Z" fill="#ECECEC"/>
<path d="M2.68582 13C2.68582 8.54158 4.90012 4.59244 8.28425 2.18305L6.72648 0C2.65896 2.89782 0 7.64215 0 13C0 18.3578 2.65896 23.1022 6.72648 26L8.28425 23.817C4.90012 21.4046 2.68582 17.4554 2.68582 13Z" fill="#ECECEC"/>
<path d="M22 12.9987C22 10.9851 21.0026 9.20258 19.4777 8.11573C18.4961 7.41479 17.2966 7 16 7C14.7034 7 13.5039 7.41479 12.5223 8.11573C10.9974 9.20521 10 10.9877 10 12.9987C10 15.0096 10.9974 16.7948 12.5223 17.8843C13.5039 18.5852 14.7034 19 16 19C17.2966 19 18.4961 18.5852 19.4777 17.8843C21.0026 16.7948 22 15.0123 22 12.9987ZM18.1076 15.9573C17.5118 16.3826 16.7874 16.6347 16.0026 16.6347C15.2178 16.6347 14.4908 16.3826 13.8976 15.9573C12.9738 15.2984 12.3675 14.2194 12.3675 12.9987C12.3675 11.7779 12.9738 10.699 13.8976 10.04C14.4934 9.61475 15.2178 9.36272 16.0026 9.36272C16.7874 9.36272 17.5144 9.61475 18.1076 10.04C19.0315 10.699 19.6378 11.7779 19.6378 12.9987C19.6378 14.2194 19.0315 15.2984 18.1076 15.9573Z" fill="#ECECEC"/>
</g>
<defs>
<clipPath id="clip0_2463_36104">
<rect width="32" height="26" fill="white"/>
</clipPath>
</defs>
</svg>
