<svg width="50" height="50" viewBox="0 0 50 50" fill="none" xmlns="http://www.w3.org/2000/svg">
<foreignObject x="-6.99878" y="-8.7" width="64" height="65.7"><div xmlns="http://www.w3.org/1999/xhtml" style="backdrop-filter:blur(5.85px);clip-path:url(#bgblur_0_2482_42717_clip_path);height:100%;width:100%"></div></foreignObject><g filter="url(#filter0_d_2482_42717)" data-figma-bg-blur-radius="11.7">
<path d="M18.7334 10.2246L31.3652 10.2324C35.0634 10.2348 37.7772 13.0527 37.7773 16.7422V29.3047C37.7773 32.7538 35.3225 35.7754 31.8408 35.7754H18.1543C14.6725 35.7754 12.2246 32.7359 12.2246 29.3389V16.7451C12.2246 13.005 14.994 10.2246 18.7334 10.2246ZM32.4443 11.4775C29.7104 10.8978 26.5996 11.9045 24.2422 13.2363C20.361 15.426 17.1722 18.6658 15.0576 22.5947H15.0566C13.7739 24.9791 12.8117 28.1786 13.583 30.8926C14.0766 32.628 15.3565 33.9425 17.0928 34.4561C19.936 35.2985 23.2918 34.2187 25.7607 32.8262C29.6394 30.639 32.8308 27.3966 34.9453 23.4678C34.9489 23.4611 34.9502 23.4533 34.9531 23.4463C36.227 21.073 37.1633 17.9488 36.4453 15.248C35.9254 13.2979 34.4119 11.8968 32.4453 11.4775H32.4443ZM25.9951 19.3301C25.9967 19.3384 25.9965 19.3473 25.999 19.3555C26.3724 20.5621 27.2808 21.5181 28.4541 21.9492L28.6924 22.0283L31.752 23.0303L28.5781 24.0654L28.5762 24.0664C27.3459 24.481 26.3836 25.4567 26 26.7041L25 29.8096L24.0273 26.8203C23.6499 25.4362 22.5689 24.3843 21.2031 23.998H21.2041L18.2412 23.0312L21.3076 22.0361L21.3066 22.0352C22.639 21.6214 23.6701 20.5774 24.0371 19.2266L25 16.2451L25.9951 19.3301ZM29.9785 15.8145C30.5924 15.1994 31.5874 15.1992 32.2012 15.8145C32.8154 16.4302 32.8154 17.4292 32.2012 18.0449C31.5873 18.6603 30.5925 18.6601 29.9785 18.0449C29.3643 17.4292 29.3643 16.4302 29.9785 15.8145Z" fill="#EAB551"/>
<path d="M18.7334 10.2246L31.3652 10.2324C35.0634 10.2348 37.7772 13.0527 37.7773 16.7422V29.3047C37.7773 32.7538 35.3225 35.7754 31.8408 35.7754H18.1543C14.6725 35.7754 12.2246 32.7359 12.2246 29.3389V16.7451C12.2246 13.005 14.994 10.2246 18.7334 10.2246ZM32.4443 11.4775C29.7104 10.8978 26.5996 11.9045 24.2422 13.2363C20.361 15.426 17.1722 18.6658 15.0576 22.5947H15.0566C13.7739 24.9791 12.8117 28.1786 13.583 30.8926C14.0766 32.628 15.3565 33.9425 17.0928 34.4561C19.936 35.2985 23.2918 34.2187 25.7607 32.8262C29.6394 30.639 32.8308 27.3966 34.9453 23.4678C34.9489 23.4611 34.9502 23.4533 34.9531 23.4463C36.227 21.073 37.1633 17.9488 36.4453 15.248C35.9254 13.2979 34.4119 11.8968 32.4453 11.4775H32.4443ZM25.9951 19.3301C25.9967 19.3384 25.9965 19.3473 25.999 19.3555C26.3724 20.5621 27.2808 21.5181 28.4541 21.9492L28.6924 22.0283L31.752 23.0303L28.5781 24.0654L28.5762 24.0664C27.3459 24.481 26.3836 25.4567 26 26.7041L25 29.8096L24.0273 26.8203C23.6499 25.4362 22.5689 24.3843 21.2031 23.998H21.2041L18.2412 23.0312L21.3076 22.0361L21.3066 22.0352C22.639 21.6214 23.6701 20.5774 24.0371 19.2266L25 16.2451L25.9951 19.3301ZM29.9785 15.8145C30.5924 15.1994 31.5874 15.1992 32.2012 15.8145C32.8154 16.4302 32.8154 17.4292 32.2012 18.0449C31.5873 18.6603 30.5925 18.6601 29.9785 18.0449C29.3643 17.4292 29.3643 16.4302 29.9785 15.8145Z" fill="url(#paint0_linear_2482_42717)" fill-opacity="0.4" style="mix-blend-mode:luminosity"/>
<path d="M18.7334 10.2246L31.3652 10.2324C35.0634 10.2348 37.7772 13.0527 37.7773 16.7422V29.3047C37.7773 32.7538 35.3225 35.7754 31.8408 35.7754H18.1543C14.6725 35.7754 12.2246 32.7359 12.2246 29.3389V16.7451C12.2246 13.005 14.994 10.2246 18.7334 10.2246ZM32.4443 11.4775C29.7104 10.8978 26.5996 11.9045 24.2422 13.2363C20.361 15.426 17.1722 18.6658 15.0576 22.5947H15.0566C13.7739 24.9791 12.8117 28.1786 13.583 30.8926C14.0766 32.628 15.3565 33.9425 17.0928 34.4561C19.936 35.2985 23.2918 34.2187 25.7607 32.8262C29.6394 30.639 32.8308 27.3966 34.9453 23.4678C34.9489 23.4611 34.9502 23.4533 34.9531 23.4463C36.227 21.073 37.1633 17.9488 36.4453 15.248C35.9254 13.2979 34.4119 11.8968 32.4453 11.4775H32.4443ZM25.9951 19.3301C25.9967 19.3384 25.9965 19.3473 25.999 19.3555C26.3724 20.5621 27.2808 21.5181 28.4541 21.9492L28.6924 22.0283L31.752 23.0303L28.5781 24.0654L28.5762 24.0664C27.3459 24.481 26.3836 25.4567 26 26.7041L25 29.8096L24.0273 26.8203C23.6499 25.4362 22.5689 24.3843 21.2031 23.998H21.2041L18.2412 23.0312L21.3076 22.0361L21.3066 22.0352C22.639 21.6214 23.6701 20.5774 24.0371 19.2266L25 16.2451L25.9951 19.3301ZM29.9785 15.8145C30.5924 15.1994 31.5874 15.1992 32.2012 15.8145C32.8154 16.4302 32.8154 17.4292 32.2012 18.0449C31.5873 18.6603 30.5925 18.6601 29.9785 18.0449C29.3643 17.4292 29.3643 16.4302 29.9785 15.8145Z" stroke="url(#paint1_linear_2482_42717)" style="mix-blend-mode:soft-light" stroke-width="0.45" stroke-linejoin="round"/>
</g>
<defs>
<filter id="filter0_d_2482_42717" x="-6.99878" y="-8.7" width="64" height="65.7" filterUnits="userSpaceOnUse" color-interpolation-filters="sRGB">
<feFlood flood-opacity="0" result="BackgroundImageFix"/>
<feColorMatrix in="SourceAlpha" type="matrix" values="0 0 0 0 0 0 0 0 0 0 0 0 0 0 0 0 0 0 127 0" result="hardAlpha"/>
<feOffset dy="2"/>
<feGaussianBlur stdDeviation="6"/>
<feComposite in2="hardAlpha" operator="out"/>
<feColorMatrix type="matrix" values="0 0 0 0 0 0 0 0 0 0 0 0 0 0 0 0 0 0 0.04 0"/>
<feBlend mode="normal" in2="BackgroundImageFix" result="effect1_dropShadow_2482_42717"/>
<feBlend mode="normal" in="SourceGraphic" in2="effect1_dropShadow_2482_42717" result="shape"/>
</filter>
<clipPath id="bgblur_0_2482_42717_clip_path" transform="translate(6.99878 8.7)"><rect x="5.00122" y="3" width="40" height="40" rx="8"/>
</clipPath><linearGradient id="paint0_linear_2482_42717" x1="25.0012" y1="10" x2="25.0012" y2="36" gradientUnits="userSpaceOnUse">
<stop stop-color="#CDCFEC"/>
<stop offset="1" stop-color="#5E639C"/>
</linearGradient>
<linearGradient id="paint1_linear_2482_42717" x1="25.0012" y1="10" x2="25.0012" y2="36" gradientUnits="userSpaceOnUse">
<stop stop-color="#525252"/>
<stop offset="1" stop-color="#DFDFDF"/>
</linearGradient>
</defs>
</svg>
