<svg width="24" height="24" viewBox="0 0 24 24" fill="none" xmlns="http://www.w3.org/2000/svg">
<path d="M12.0002 2L3.81836 5.63636V11.0909C3.81836 16.1364 7.30927 20.8545 12.0002 22C16.6911 20.8545 20.182 16.1364 20.182 11.0909V5.63636L12.0002 2ZM12.0002 7.45455C13.2729 7.45455 14.5456 8.45455 14.5456 9.72727V11.0909C15.0911 11.0909 15.6365 11.6364 15.6365 12.2727V15.4545C15.6365 16 15.0911 16.5455 14.4547 16.5455H9.45472C8.90927 16.5455 8.36381 16 8.36381 15.3636V12.1818C8.36381 11.6364 8.90927 11.0909 9.45472 11.0909V9.72727C9.45472 8.45455 10.7275 7.45455 12.0002 7.45455ZM12.0002 8.54545C11.2729 8.54545 10.6365 9 10.6365 9.72727V11.0909H13.3638V9.72727C13.3638 9 12.7275 8.54545 12.0002 8.54545Z" fill="#ECECEC"/>
</svg>
