<svg width="24" height="24" viewBox="0 0 24 24" fill="none" xmlns="http://www.w3.org/2000/svg">
<path fill-rule="evenodd" clip-rule="evenodd" d="M2 6.64265C2 5.65598 2.8 4.85693 3.78571 4.85693H20.2143C21.2 4.85693 22 5.65693 22 6.64265V9.52455C22.0001 9.65001 21.9671 9.77328 21.9044 9.88196C21.8417 9.99063 21.7515 10.0809 21.6429 10.1436C21.3167 10.3314 21.0457 10.6019 20.8573 10.9278C20.6689 11.2536 20.5697 11.6234 20.5697 11.9998C20.5697 12.3762 20.6689 12.746 20.8573 13.0718C21.0457 13.3977 21.3167 13.6682 21.6429 13.856C21.7515 13.9187 21.8417 14.009 21.9044 14.1176C21.9671 14.2263 22.0001 14.3496 22 14.475V17.3569C22 18.3426 21.2 19.1426 20.2143 19.1426H3.78571C3.31211 19.1426 2.85791 18.9545 2.52302 18.6196C2.18814 18.2847 2 17.8305 2 17.3569V14.475C1.99982 14.3497 2.03265 14.2265 2.09517 14.1178C2.15769 14.0091 2.24772 13.9188 2.35619 13.856C2.68239 13.6682 2.95333 13.3977 3.14172 13.0718C3.33011 12.746 3.42931 12.3762 3.42931 11.9998C3.42931 11.6234 3.33011 11.2536 3.14172 10.9278C2.95333 10.6019 2.68239 10.3314 2.35619 10.1436C2.24772 10.0807 2.15769 9.99046 2.09517 9.88179C2.03265 9.77313 1.99982 9.64992 2 9.52455V6.64265ZM16.2857 5.57122C16.4752 5.57122 16.6568 5.64647 16.7908 5.78043C16.9247 5.91438 17 6.09606 17 6.28551V6.99979C17 7.18923 16.9247 7.37091 16.7908 7.50487C16.6568 7.63882 16.4752 7.71408 16.2857 7.71408C16.0963 7.71408 15.9146 7.63882 15.7806 7.50487C15.6467 7.37091 15.5714 7.18923 15.5714 6.99979V6.28551C15.5714 6.09606 15.6467 5.91438 15.7806 5.78043C15.9146 5.64647 16.0963 5.57122 16.2857 5.57122ZM17 9.85693C17 9.66749 16.9247 9.48581 16.7908 9.35186C16.6568 9.2179 16.4752 9.14265 16.2857 9.14265C16.0963 9.14265 15.9146 9.2179 15.7806 9.35186C15.6467 9.48581 15.5714 9.66749 15.5714 9.85693V10.5712C15.5714 10.7607 15.6467 10.9423 15.7806 11.0763C15.9146 11.2102 16.0963 11.2855 16.2857 11.2855C16.4752 11.2855 16.6568 11.2102 16.7908 11.0763C16.9247 10.9423 17 10.7607 17 10.5712V9.85693ZM16.2857 12.7141C16.4752 12.7141 16.6568 12.7893 16.7908 12.9233C16.9247 13.0572 17 13.2389 17 13.4284V14.1426C17 14.3321 16.9247 14.5138 16.7908 14.6477C16.6568 14.7817 16.4752 14.8569 16.2857 14.8569C16.0963 14.8569 15.9146 14.7817 15.7806 14.6477C15.6467 14.5138 15.5714 14.3321 15.5714 14.1426V13.4284C15.5714 13.2389 15.6467 13.0572 15.7806 12.9233C15.9146 12.7893 16.0963 12.7141 16.2857 12.7141ZM17 16.9998C17 16.8104 16.9247 16.6287 16.7908 16.4947C16.6568 16.3608 16.4752 16.2855 16.2857 16.2855C16.0963 16.2855 15.9146 16.3608 15.7806 16.4947C15.6467 16.6287 15.5714 16.8104 15.5714 16.9998V17.7141C15.5714 17.9035 15.6467 18.0852 15.7806 18.2192C15.9146 18.3531 16.0963 18.4284 16.2857 18.4284C16.4752 18.4284 16.6568 18.3531 16.7908 18.2192C16.9247 18.0852 17 17.9035 17 17.7141V16.9998ZM6.28572 11.9998C6.28572 11.8104 6.36097 11.6287 6.49492 11.4947C6.62888 11.3608 6.81056 11.2855 7 11.2855H12C12.1894 11.2855 12.3711 11.3608 12.5051 11.4947C12.639 11.6287 12.7143 11.8104 12.7143 11.9998C12.7143 12.1892 12.639 12.3709 12.5051 12.5049C12.3711 12.6388 12.1894 12.7141 12 12.7141H7C6.81056 12.7141 6.62888 12.6388 6.49492 12.5049C6.36097 12.3709 6.28572 12.1892 6.28572 11.9998ZM7 14.1426C6.81056 14.1426 6.62888 14.2179 6.49492 14.3519C6.36097 14.4858 6.28572 14.6675 6.28572 14.8569C6.28572 15.0464 6.36097 15.2281 6.49492 15.362C6.62888 15.496 6.81056 15.5712 7 15.5712H9.85714C10.0466 15.5712 10.2283 15.496 10.3622 15.362C10.4962 15.2281 10.5714 15.0464 10.5714 14.8569C10.5714 14.6675 10.4962 14.4858 10.3622 14.3519C10.2283 14.2179 10.0466 14.1426 9.85714 14.1426H7Z" fill="#ECECEC"/>
</svg>
