<svg width="24" height="24" viewBox="0 0 24 24" fill="none" xmlns="http://www.w3.org/2000/svg">
<path d="M16.5784 19.2727V21.0909C16.5784 21.3371 16.4878 21.5502 16.3065 21.7301C16.1253 21.91 15.9107 22 15.6627 22H8.33665C8.08863 22 7.874 21.91 7.69276 21.7301C7.51152 21.5502 7.4209 21.3371 7.4209 21.0909V19.2727C7.4209 19.0265 7.51152 18.8134 7.69276 18.6335C7.874 18.4536 8.08863 18.3636 8.33665 18.3636H9.2524V12.9091H8.33665C8.08863 12.9091 7.874 12.8191 7.69276 12.6392C7.51152 12.4593 7.4209 12.2462 7.4209 12V10.1818C7.4209 9.93561 7.51152 9.72254 7.69276 9.54261C7.874 9.36269 8.08863 9.27273 8.33665 9.27273H13.8312C14.0792 9.27273 14.2938 9.36269 14.475 9.54261C14.6563 9.72254 14.7469 9.93561 14.7469 10.1818V18.3636H15.6627C15.9107 18.3636 16.1253 18.4536 16.3065 18.6335C16.4878 18.8134 16.5784 19.0265 16.5784 19.2727ZM14.7469 2.90909V5.63636C14.7469 5.88258 14.6563 6.09564 14.475 6.27557C14.2938 6.45549 14.0792 6.54545 13.8312 6.54545H10.1682C9.92014 6.54545 9.70551 6.45549 9.52426 6.27557C9.34302 6.09564 9.2524 5.88258 9.2524 5.63636V2.90909C9.2524 2.66288 9.34302 2.44981 9.52426 2.26989C9.70551 2.08996 9.92014 2 10.1682 2H13.8312C14.0792 2 14.2938 2.08996 14.475 2.26989C14.6563 2.44981 14.7469 2.66288 14.7469 2.90909Z" fill="#ECECEC"/>
</svg>
