<svg width="24" height="24" viewBox="0 0 24 24" fill="none" xmlns="http://www.w3.org/2000/svg">
<path d="M9.41561 5.08464C8.88996 9.22483 5.99324 12.1103 2 12.732C6.12324 13.4555 8.83344 16.3494 9.41561 20.3087C9.94974 16.1967 12.8097 13.4385 16.868 12.7263C12.8041 12.1894 9.848 9.14288 9.41561 5.08747V5.08464Z" fill="#ECECEC"/>
<path d="M16.8595 10.2196C17.0884 8.45616 18.3149 7.27204 20.0558 6.96682C18.3121 6.73508 17.046 5.42944 16.8595 3.69141C16.6334 5.46618 15.3928 6.704 13.6802 6.97247C15.4493 7.28334 16.6108 8.52399 16.8595 10.2225V10.2196Z" fill="#ECECEC"/>
<path d="M19.3972 11.4857C19.2135 12.9327 18.2018 13.9388 16.8057 14.1564C18.247 14.4079 19.1937 15.4196 19.3972 16.8044C19.5837 15.3687 20.5841 14.4051 22 14.1535C20.5813 13.9642 19.547 12.9016 19.3972 11.4829V11.4857Z" fill="#ECECEC"/>
</svg>
