<svg width="24" height="24" viewBox="0 0 24 24" fill="none" xmlns="http://www.w3.org/2000/svg">
<path d="M21.3032 13.7173C20.9303 13.5425 20.5326 13.4367 20.1225 13.4153L19.3768 13.3739C19.2478 13.3662 19.1189 13.3647 18.9899 13.3616C18.6015 13.3355 18.2162 13.3033 17.8232 13.2481C17.2763 13.1715 16.7745 12.3787 16.9609 12.1579C16.9749 12.1457 16.9904 12.1334 17.0044 12.1242C17.0169 12.1181 17.0308 12.1119 17.0479 12.1073C17.8496 11.9218 18.5502 11.4971 19.0505 10.8515L19.1142 10.7703C19.1235 10.758 19.1344 10.7457 19.1437 10.7335L20.1815 9.39793C20.239 9.33506 20.298 9.27219 20.3586 9.20933C20.5124 9.07133 20.6989 8.95173 20.862 8.83519C21.0531 8.69873 21.2442 8.62053 21.4259 8.57913C21.6341 8.54079 21.8563 8.53619 22.1033 8.55306C22.2571 8.56839 22.386 8.58986 22.4824 8.58833C22.4901 8.58833 22.4995 8.58986 22.5072 8.59139C22.5088 8.59139 22.5103 8.58833 22.5119 8.58679C22.515 8.58679 22.5165 8.58679 22.5197 8.58679C22.6641 8.57146 22.6502 8.49019 22.5305 8.38899C22.3892 8.21419 21.8951 8.07466 21.7693 8.03632C19.644 7.39999 18.2457 9.72606 16.933 9.72606C16.6487 9.68926 16.3566 9.54666 16.1686 9.38413C16.0661 9.29673 16.1888 9.12806 16.2447 9.05753C16.9236 8.21266 17.006 7.49659 17.0293 6.62259C17.0448 6.35579 17.0572 6.03532 17.0479 5.79459C17.0495 5.74245 17.051 5.68879 17.0541 5.63359C17.0666 5.35759 17.1116 5.08465 17.1396 4.79945C17.2111 4.06345 17.789 3.43632 18.4322 3.18332C18.5394 3.14192 18.6372 2.70338 17.3043 3.22625C16.7729 3.43478 16.4063 3.87025 16.1251 4.34252C15.788 4.91139 15.6155 5.48485 15.4369 5.99239C15.3126 6.30519 15.1712 6.61032 15.0003 6.89552C14.629 7.51346 13.7838 7.65299 13.6689 7.33099C13.6394 7.18072 13.7497 6.93692 13.6549 6.44012C13.5632 5.95712 13.4188 5.50172 13.1313 5.09539L12.3592 3.99905C11.7471 3.13118 11.3199 2.30318 11.9118 1.25744C11.9615 1.17158 11.9413 1.02898 11.8636 1.00444C11.8077 0.986044 11.6803 1.02744 11.6352 1.07958C10.9315 1.89685 10.8087 2.09925 10.7792 3.14498C10.7621 3.71998 10.9641 4.25512 11.107 4.79945L11.323 5.61672C11.3276 5.63512 11.3323 5.65352 11.3369 5.67192C11.3354 5.82065 11.3618 5.98012 11.3742 6.04759C11.4535 6.49226 11.3012 6.83726 10.9781 7.14086C10.9175 7.19759 10.8196 7.27886 10.7512 7.29419C10.672 7.29112 10.5959 7.23592 10.5198 7.15466C10.4654 7.09179 10.4048 7.01359 10.3349 6.92312C10.2572 6.81732 10.178 6.70999 10.0941 6.62566C10.0459 6.57659 9.99465 6.52906 9.94338 6.48306C9.7585 6.30519 9.52547 6.12425 9.22562 5.97092C8.95685 5.81912 8.67099 5.69492 8.37581 5.59525L8.36804 5.59219C8.18627 5.51245 8.0014 5.44192 7.80875 5.40359L7.56484 5.32079C7.16557 5.18585 6.77717 5.06779 6.42917 4.83012C5.27796 4.04812 5.71918 3.04992 5.34477 3.15112C5.29194 3.16492 5.23291 3.26305 5.22203 3.33665C5.07444 4.26432 5.26553 4.98959 5.76579 5.61212C5.77977 5.64585 5.79686 5.67805 5.8155 5.69799C6.57987 6.55206 7.26811 6.73452 8.08995 7.68059C8.1319 7.72812 8.16608 7.78026 8.19715 7.83546C8.26085 7.97039 8.29813 8.10839 8.31522 8.23873C8.33697 8.48253 8.28104 8.73399 8.16142 8.93486C8.14433 8.96399 8.11947 8.97933 8.08995 8.98546C8.02936 8.98546 7.95324 8.96399 7.85536 8.93179C7.83361 8.92259 7.81341 8.91339 7.79788 8.90726C7.65029 8.85206 7.5027 8.81066 7.35666 8.77999C7.01642 8.70026 6.56122 8.65426 5.95533 8.77233C5.34477 8.87659 4.74664 9.08666 4.14229 9.26606C3.83779 9.35653 3.57057 9.40713 3.33598 9.42706C2.70522 9.47306 2.09933 9.31666 1.58975 8.72786C1.55246 8.68493 1.44371 8.66193 1.39711 8.67879C1.35516 8.69566 1.33807 8.73553 1.34118 8.79379C1.33341 9.08513 1.96261 9.999 2.69746 10.2827C3.07032 10.4575 3.46804 10.5633 3.87663 10.5847L4.62235 10.6261C4.7513 10.6338 4.88024 10.6353 5.00919 10.6384C5.39759 10.6645 5.78443 10.6967 6.17594 10.7519C6.7228 10.8285 7.22461 11.6213 7.03817 11.8421C7.02419 11.8543 7.00866 11.8666 6.99467 11.8758C6.98225 11.8819 6.96826 11.8881 6.95117 11.8927C6.14952 12.0782 5.44886 12.5029 4.9486 13.1485L4.88491 13.2297C4.87558 13.242 4.86471 13.2543 4.85539 13.2665L3.81759 14.6021C3.76011 14.6649 3.70107 14.7278 3.64048 14.7907C3.48668 14.9287 3.30025 15.0483 3.13712 15.1648C2.94603 15.3013 2.75494 15.3795 2.57317 15.4209C2.36344 15.4592 2.14283 15.4638 1.89581 15.4469C1.742 15.4316 1.61305 15.4101 1.51673 15.4117C1.50896 15.4117 1.49964 15.4101 1.49187 15.4086C1.49032 15.4086 1.48877 15.4117 1.48721 15.4132C1.48411 15.4132 1.48255 15.4132 1.47945 15.4132C1.33496 15.4285 1.34894 15.5098 1.46857 15.611C1.60995 15.7858 2.10399 15.9253 2.22983 15.9637C4.35513 16.6 5.75336 14.2739 7.06614 14.2739C7.35045 14.3107 7.64252 14.4533 7.8305 14.6159C7.93304 14.7033 7.81031 14.8719 7.75438 14.9425C7.07546 15.7873 6.99312 16.5034 6.96982 17.3774C6.95428 17.6442 6.94185 17.9647 6.95117 18.2054C6.94962 18.2591 6.94807 18.3112 6.94496 18.3664C6.93253 18.6424 6.88748 18.9153 6.85951 19.2005C6.78805 19.9366 6.21011 20.5637 5.56693 20.8167C5.45973 20.8581 5.36186 21.2966 6.69483 20.7738C7.22616 20.5652 7.5928 20.1298 7.874 19.6575C8.21113 19.0886 8.38358 18.5151 8.56224 18.0076C8.68653 17.6948 8.82791 17.3897 8.9988 17.1045C9.37011 16.4865 10.2153 16.347 10.3302 16.669C10.3597 16.8193 10.2494 17.0631 10.3442 17.5599C10.4359 18.0429 10.5803 18.4983 10.8678 18.9046L11.6399 20.0009C12.252 20.8688 12.6792 21.6968 12.0873 22.7426C12.0376 22.8284 12.0578 22.971 12.1355 22.9956C12.1914 23.014 12.3188 22.9726 12.3639 22.9204C13.0676 22.1032 13.1904 21.9008 13.2199 20.855C13.237 20.28 13.035 19.7449 12.8921 19.2005L12.6761 18.3833C12.6715 18.3649 12.6668 18.3465 12.6622 18.3281C12.6637 18.1793 12.6373 18.0199 12.6249 17.9524C12.5456 17.5077 12.6979 17.1627 13.021 16.8591C13.0816 16.8024 13.1795 16.7211 13.2479 16.7058C13.3271 16.7089 13.4032 16.7641 13.4793 16.8438C13.5337 16.9067 13.5943 16.9849 13.6642 17.0753C13.7419 17.1811 13.8211 17.2885 13.905 17.3728C13.9532 17.4219 14.0045 17.4694 14.0557 17.5154C14.2406 17.6933 14.4736 17.8742 14.7735 18.0275C15.0422 18.1793 15.3297 18.3035 15.6233 18.4032L15.6311 18.4063C15.8128 18.486 15.9977 18.5565 16.1903 18.5949L16.4343 18.6777C16.8335 18.8126 17.2219 18.9307 17.5699 19.1683C18.7211 19.9503 18.2799 20.9486 18.6543 20.8474C18.7072 20.8336 18.7662 20.7354 18.7771 20.6618C18.9247 19.7342 18.7336 19.0089 18.2333 18.3863C18.2193 18.3526 18.2022 18.3204 18.1836 18.3005C17.4192 17.4464 16.731 17.2639 15.9091 16.3179C15.8672 16.2703 15.833 16.2182 15.802 16.163C15.7383 16.0281 15.701 15.8901 15.6839 15.7597C15.6621 15.5159 15.7181 15.2645 15.8377 15.0636C15.8548 15.0345 15.8796 15.0191 15.9091 15.013C15.9697 15.013 16.0459 15.0345 16.1437 15.0667C16.1655 15.0759 16.1857 15.0851 16.2012 15.0912C16.3488 15.1464 16.4964 15.1878 16.6424 15.2185C16.9827 15.2982 17.4379 15.3442 18.0438 15.2261C18.6543 15.1219 19.2525 14.9118 19.8568 14.7324C20.1613 14.6419 20.4285 14.5913 20.6631 14.5714C21.2939 14.5254 21.8998 14.6818 22.4093 15.2706C22.4466 15.3135 22.5554 15.3365 22.602 15.3197C22.6439 15.3028 22.661 15.2629 22.6579 15.2047C22.6657 14.9133 22.0365 13.9995 21.3016 13.7158L21.3032 13.7173Z" fill="#ECECEC"/>
</svg>
