<svg width="24" height="24" viewBox="0 0 24 24" fill="none" xmlns="http://www.w3.org/2000/svg">
<path d="M16.7059 13.2672C15.0073 16.3834 15.8514 19.0553 14.5067 19.0325C14.2159 19.0275 13.8299 18.6769 13.7681 18.3149C13.6124 17.4074 13.0719 13.3596 12.0669 13.2609C10.9474 13.1521 10.3992 17.3846 10.2435 18.3187C10.192 18.6237 9.8523 18.9781 9.61038 19.0199C9.27967 19.0768 8.81899 18.7958 8.75079 18.4263L8.29654 15.9797C8.16786 15.2835 7.53732 12.8306 6.67644 12.9407C6.50272 12.9635 6.17458 13.2204 6.13469 13.3888L5.72934 15.0519C5.67915 15.2569 5.44753 15.5101 5.24936 15.5189C4.29196 15.5594 5.16057 13.023 3 12.0041C5.18373 10.9485 4.25593 8.53098 5.25064 8.48668C5.4501 8.47782 5.67272 8.74235 5.72548 8.95752L6.12954 10.6194C6.172 10.7915 6.50658 11.0523 6.68158 11.0687C7.53732 11.1523 8.14856 8.80437 8.27338 8.14114L8.76237 5.54265C8.81513 5.25913 9.26423 4.9579 9.50743 4.96802C9.82785 4.98194 10.1894 5.35912 10.2499 5.72238C10.4031 6.64128 10.9474 10.6675 11.9524 10.7422C13.0732 10.8244 13.6008 6.67672 13.7617 5.72238C13.8144 5.40722 14.1297 5.04143 14.3858 4.98827C14.6933 4.92499 15.1862 5.19332 15.2518 5.54898L15.6945 7.94496C15.8257 8.65628 16.446 11.1839 17.3339 11.0687C17.5076 11.0459 17.8383 10.7903 17.8846 10.6004L18.2797 8.96385C18.326 8.77146 18.5692 8.5006 18.7597 8.48921C19.7055 8.43352 18.8484 10.9776 21 12.0053C18.8472 13.042 19.7196 15.5215 18.7597 15.5177C17.8833 15.5139 18.3723 13.0863 17.3146 12.9382C17.1408 12.9141 16.7973 13.0926 16.702 13.2672H16.7059Z" fill="#ECECEC"/>
</svg>
