<svg width="64" height="64" viewBox="0 0 64 64" fill="none" xmlns="http://www.w3.org/2000/svg">
<foreignObject x="0" y="-1.7" width="64" height="65.7"><div xmlns="http://www.w3.org/1999/xhtml" style="backdrop-filter:blur(5.85px);clip-path:url(#bgblur_0_2464_52481_clip_path);height:100%;width:100%"></div></foreignObject><g filter="url(#filter0_d_2464_52481)" data-figma-bg-blur-radius="11.7">
<rect x="12" y="10" width="40" height="40" rx="8" fill="#9D86E2" shape-rendering="crispEdges"/>
<rect x="12.5" y="10.5" width="39" height="39" rx="7.5" stroke="url(#paint0_linear_2464_52481)" stroke-opacity="0.4" style="mix-blend-mode:luminosity" shape-rendering="crispEdges"/>
<path d="M41.1046 17H22.8955V43H41.1046V17ZM32.0001 19.6013C33.4308 19.6013 34.6014 20.7719 34.6014 22.2026C34.6014 23.6333 33.4308 24.8039 32.0001 24.8039C31.3102 24.8039 30.6485 24.5298 30.1607 24.042C29.6728 23.5542 29.3988 22.8925 29.3988 22.2026C29.3988 21.5127 29.6728 20.851 30.1607 20.3632C30.6485 19.8754 31.3102 19.6013 32.0001 19.6013ZM32.0001 40.4117C28.4103 40.4117 25.4968 37.4982 25.4968 33.9085C25.4968 30.3187 28.4103 27.4052 32.0001 27.4052C35.5899 27.4052 38.5033 30.3187 38.5033 33.9085C38.5033 37.4982 35.5899 40.4117 32.0001 40.4117ZM32.0001 30.0065C29.841 30.0065 28.0981 31.7494 28.0981 33.9085C28.0981 36.0675 29.841 37.8104 32.0001 37.8104C34.1591 37.8104 35.902 36.0675 35.902 33.9085C35.902 31.7494 34.1591 30.0065 32.0001 30.0065Z" fill="#797979" style="mix-blend-mode:luminosity"/>
</g>
<defs>
<filter id="filter0_d_2464_52481" x="0" y="-1.7" width="64" height="65.7" filterUnits="userSpaceOnUse" color-interpolation-filters="sRGB">
<feFlood flood-opacity="0" result="BackgroundImageFix"/>
<feColorMatrix in="SourceAlpha" type="matrix" values="0 0 0 0 0 0 0 0 0 0 0 0 0 0 0 0 0 0 127 0" result="hardAlpha"/>
<feOffset dy="2"/>
<feGaussianBlur stdDeviation="6"/>
<feComposite in2="hardAlpha" operator="out"/>
<feColorMatrix type="matrix" values="0 0 0 0 0 0 0 0 0 0 0 0 0 0 0 0 0 0 0.04 0"/>
<feBlend mode="normal" in2="BackgroundImageFix" result="effect1_dropShadow_2464_52481"/>
<feBlend mode="normal" in="SourceGraphic" in2="effect1_dropShadow_2464_52481" result="shape"/>
</filter>
<clipPath id="bgblur_0_2464_52481_clip_path" transform="translate(0 1.7)"><rect x="12" y="10" width="40" height="40" rx="8"/>
</clipPath><linearGradient id="paint0_linear_2464_52481" x1="32" y1="10" x2="32" y2="50" gradientUnits="userSpaceOnUse">
<stop stop-color="#DFDFDF"/>
<stop offset="1" stop-color="#797979"/>
</linearGradient>
</defs>
</svg>
