<svg width="24" height="24" viewBox="0 0 24 24" fill="none" xmlns="http://www.w3.org/2000/svg">
<path d="M22.0007 12C22.0007 17.523 17.5237 22 12.0007 22C6.47764 22 1.99902 17.523 1.99902 12C1.99902 6.47697 6.476 2 11.999 2C17.522 2 21.999 6.47697 21.999 12H22.0007ZM7.57962 11.4441C9.58784 11.676 11.4497 10.1645 11.453 8.11184L11.4595 3.21053C10.8165 3.38816 10.3395 3.74836 9.92008 4.21382C8.30823 5.99836 7.63718 9.09704 7.57962 11.4441ZM14.0517 4.18421C13.6388 3.73355 13.1684 3.38487 12.5418 3.21053L12.5253 7.88322C12.5188 10.0345 14.2901 11.6859 16.425 11.4474C16.3378 9.03618 15.6816 5.97039 14.05 4.18586L14.0517 4.18421ZM8.73915 3.69901C5.51383 4.94079 3.28521 8.01316 3.08948 11.4572C4.83291 11.5461 6.32139 10.347 6.6635 8.66118C7.04837 6.80263 7.56152 5.31743 8.7408 3.69901H8.73915ZM17.3313 8.64309C17.675 10.3668 19.1964 11.5559 20.9119 11.4539C20.6947 7.97697 18.4908 4.95888 15.254 3.69079C15.7408 4.38651 16.147 5.03289 16.4661 5.77467C16.8576 6.70395 17.1273 7.61842 17.3313 8.64309ZM7.52534 18.2072C7.13225 17.2664 6.86909 16.3586 6.67172 15.3816C6.34606 13.6645 4.81975 12.4441 3.08619 12.5461C3.3033 16.0214 5.5056 19.0395 8.74244 20.3109C8.2556 19.6135 7.851 18.9737 7.52534 18.2089V18.2072ZM11.4595 20.7944L11.453 15.8882C11.4497 13.8339 9.58948 12.3257 7.57962 12.5559C7.63389 14.8882 8.30166 17.972 9.89212 19.7566C10.3165 20.2336 10.7984 20.6102 11.4595 20.7961V20.7944ZM14.0681 19.8043C15.7095 17.9523 16.3329 14.977 16.4234 12.5543C14.3197 12.3158 12.527 13.9309 12.5286 16.0559L12.5352 20.7862C13.1454 20.6414 13.6191 20.2681 14.0665 19.8026L14.0681 19.8043ZM15.2655 20.3059C18.5155 19.023 20.6931 16.0049 20.9119 12.5461C19.1767 12.4441 17.6536 13.6645 17.3263 15.3816C17.129 16.3586 16.8642 17.2697 16.4809 18.1859C16.1668 18.9441 15.7424 19.6003 15.2655 20.3043V20.3059Z" fill="#ECECEC"/>
</svg>
