<svg width="24" height="24" viewBox="0 0 24 24" fill="none" xmlns="http://www.w3.org/2000/svg">
<path d="M14.4468 6.94033C14.4288 7.04142 14.3661 7.1147 14.2587 7.1147C14.1513 7.1147 14.0974 7.04142 14.0794 6.94033C13.7927 5.41567 13.8198 5.37923 12.2517 5.06694C12.1531 5.04852 12.0816 4.99327 12.0816 4.88316C12.0816 4.76365 12.1531 4.70879 12.2517 4.68999C13.8107 4.36868 13.7927 4.34125 14.0794 2.81699C14.0974 2.71589 14.1513 2.64222 14.2587 2.64222C14.3665 2.64222 14.4288 2.71589 14.4468 2.81699C14.7247 4.34164 14.7155 4.36907 16.2657 4.69038C16.3731 4.70879 16.4358 4.76365 16.4358 4.88316C16.4358 4.99327 16.3731 5.04852 16.2657 5.06694C14.7155 5.37923 14.7247 5.41607 14.4468 6.94033Z" fill="#ECECEC"/>
<path d="M18.8461 13.0295C18.8282 13.2039 18.7116 13.3234 18.5506 13.3234C18.4751 13.326 18.4015 13.299 18.3449 13.2478C18.2882 13.1965 18.2528 13.1251 18.2459 13.048C17.9422 10.5945 17.852 10.5775 15.3929 10.1135L15.3696 10.1091C15.2083 10.0723 15.0921 9.97122 15.0921 9.79685C15.0921 9.62248 15.2083 9.50297 15.3696 9.48455C17.8514 9.12641 17.9325 9.04373 18.2459 6.55515C18.2639 6.38979 18.3801 6.27028 18.5506 6.27028C18.7116 6.27028 18.8282 6.38979 18.8461 6.56416C19.1416 9.02531 19.2762 9.0069 21.7221 9.48455C21.8834 9.51198 22 9.62248 22 9.79685C22 9.98062 21.8834 10.0723 21.6865 10.1091C19.2582 10.4947 19.1416 10.5684 18.8461 13.0295Z" fill="#ECECEC"/>
<path fill-rule="evenodd" clip-rule="evenodd" d="M10.2516 2.33234C10.8659 2.2381 11.0911 3.10022 10.6276 3.51468C9.2224 4.766 8.33387 6.49603 8.13543 8.36713C7.93699 10.2382 8.44287 12.1162 9.55435 13.6344C10.6658 15.1526 12.3032 16.2022 14.1468 16.5783C15.9904 16.9545 17.908 16.6301 19.5254 15.6686C20.0057 15.385 20.6677 15.8226 20.4171 16.3203C19.6671 17.8106 18.5463 19.083 17.1626 20.0152C15.7789 20.9473 14.1787 21.5079 12.5157 21.6431C10.8528 21.7782 9.18306 21.4834 7.66696 20.787C6.15086 20.0905 4.83937 19.0158 3.85853 17.6661C2.87769 16.3165 2.26047 14.7372 2.06619 13.0802C1.8719 11.4231 2.10707 9.74391 2.74911 8.20397C3.39115 6.66404 4.41847 5.31511 5.73235 4.28684C7.04623 3.25857 8.60249 2.5855 10.2516 2.33234Z" fill="#ECECEC"/>
</svg>
