<svg width="24" height="24" viewBox="0 0 24 24" fill="none" xmlns="http://www.w3.org/2000/svg">
<path d="M19.0031 2H4.99609V22H19.0031V2ZM11.9996 4.001C13.1001 4.001 14.0006 4.90145 14.0006 6.002C14.0006 7.10255 13.1001 8.003 11.9996 8.003C11.4689 8.003 10.9599 7.79218 10.5847 7.41692C10.2094 7.04166 9.9986 6.5327 9.9986 6.002C9.9986 5.4713 10.2094 4.96234 10.5847 4.58708C10.9599 4.21182 11.4689 4.001 11.9996 4.001ZM11.9996 20.009C9.23822 20.009 6.99709 17.7679 6.99709 15.0065C6.99709 12.2451 9.23822 10.004 11.9996 10.004C14.761 10.004 17.0021 12.2451 17.0021 15.0065C17.0021 17.7679 14.761 20.009 11.9996 20.009ZM11.9996 12.005C10.3388 12.005 8.9981 13.3457 8.9981 15.0065C8.9981 16.6673 10.3388 18.008 11.9996 18.008C13.6604 18.008 15.0011 16.6673 15.0011 15.0065C15.0011 13.3457 13.6604 12.005 11.9996 12.005Z" fill="#ECECEC"/>
</svg>
