<svg width="52" height="48" viewBox="0 0 52 48" fill="none" xmlns="http://www.w3.org/2000/svg">
<foreignObject x="-6" y="-10.0677" width="64" height="65.7"><div xmlns="http://www.w3.org/1999/xhtml" style="backdrop-filter:blur(5.85px);clip-path:url(#bgblur_0_2482_42725_clip_path);height:100%;width:100%"></div></foreignObject><g filter="url(#filter0_d_2482_42725)" data-figma-bg-blur-radius="11.7">
<path d="M22.3701 13.3066C23.3681 18.0458 26.8811 21.6132 31.6455 22.6689C26.8688 23.8742 23.4283 27.2025 22.3721 32.0176C21.2761 27.3453 17.9708 23.8856 13.1211 22.665C17.8232 21.5504 21.29 18.1253 22.3701 13.3066ZM36.3496 21.9307C36.7851 23.2273 37.7741 24.2192 39.0781 24.6611C37.7703 25.129 36.7893 26.0766 36.3467 27.3896C35.8988 26.1044 34.95 25.1282 33.624 24.6562C34.9176 24.2079 35.899 23.2437 36.3496 21.9307ZM32.7959 11.085C33.3124 12.7787 34.592 14.0704 36.2969 14.5996C34.587 15.1646 33.3223 16.3941 32.7949 18.1123C32.2587 16.4365 31.0332 15.1709 29.3008 14.5986C30.9886 14.0575 32.2576 12.803 32.7959 11.085Z" fill="#F9F5D9"/>
<path d="M22.3701 13.3066C23.3681 18.0458 26.8811 21.6132 31.6455 22.6689C26.8688 23.8742 23.4283 27.2025 22.3721 32.0176C21.2761 27.3453 17.9708 23.8856 13.1211 22.665C17.8232 21.5504 21.29 18.1253 22.3701 13.3066ZM36.3496 21.9307C36.7851 23.2273 37.7741 24.2192 39.0781 24.6611C37.7703 25.129 36.7893 26.0766 36.3467 27.3896C35.8988 26.1044 34.95 25.1282 33.624 24.6562C34.9176 24.2079 35.899 23.2437 36.3496 21.9307ZM32.7959 11.085C33.3124 12.7787 34.592 14.0704 36.2969 14.5996C34.587 15.1646 33.3223 16.3941 32.7949 18.1123C32.2587 16.4365 31.0332 15.1709 29.3008 14.5986C30.9886 14.0575 32.2576 12.803 32.7959 11.085Z" fill="url(#paint0_linear_2482_42725)" fill-opacity="0.4" style="mix-blend-mode:luminosity"/>
<path d="M22.3701 13.3066C23.3681 18.0458 26.8811 21.6132 31.6455 22.6689C26.8688 23.8742 23.4283 27.2025 22.3721 32.0176C21.2761 27.3453 17.9708 23.8856 13.1211 22.665C17.8232 21.5504 21.29 18.1253 22.3701 13.3066ZM36.3496 21.9307C36.7851 23.2273 37.7741 24.2192 39.0781 24.6611C37.7703 25.129 36.7893 26.0766 36.3467 27.3896C35.8988 26.1044 34.95 25.1282 33.624 24.6562C34.9176 24.2079 35.899 23.2437 36.3496 21.9307ZM32.7959 11.085C33.3124 12.7787 34.592 14.0704 36.2969 14.5996C34.587 15.1646 33.3223 16.3941 32.7949 18.1123C32.2587 16.4365 31.0332 15.1709 29.3008 14.5986C30.9886 14.0575 32.2576 12.803 32.7959 11.085Z" stroke="url(#paint1_linear_2482_42725)" style="mix-blend-mode:soft-light" stroke-width="0.45" stroke-linejoin="round"/>
</g>
<defs>
<filter id="filter0_d_2482_42725" x="-6" y="-10.0677" width="64" height="65.7" filterUnits="userSpaceOnUse" color-interpolation-filters="sRGB">
<feFlood flood-opacity="0" result="BackgroundImageFix"/>
<feColorMatrix in="SourceAlpha" type="matrix" values="0 0 0 0 0 0 0 0 0 0 0 0 0 0 0 0 0 0 127 0" result="hardAlpha"/>
<feOffset dy="2"/>
<feGaussianBlur stdDeviation="6"/>
<feComposite in2="hardAlpha" operator="out"/>
<feColorMatrix type="matrix" values="0 0 0 0 0 0 0 0 0 0 0 0 0 0 0 0 0 0 0.04 0"/>
<feBlend mode="normal" in2="BackgroundImageFix" result="effect1_dropShadow_2482_42725"/>
<feBlend mode="normal" in="SourceGraphic" in2="effect1_dropShadow_2482_42725" result="shape"/>
</filter>
<clipPath id="bgblur_0_2482_42725_clip_path" transform="translate(6 10.0677)"><rect x="6" y="1.63232" width="40" height="40" rx="8"/>
</clipPath><linearGradient id="paint0_linear_2482_42725" x1="26" y1="10" x2="26" y2="33.2642" gradientUnits="userSpaceOnUse">
<stop stop-color="#CDCFEC"/>
<stop offset="1" stop-color="#5E639C"/>
</linearGradient>
<linearGradient id="paint1_linear_2482_42725" x1="26" y1="10" x2="26" y2="33.2642" gradientUnits="userSpaceOnUse">
<stop stop-color="#525252"/>
<stop offset="1" stop-color="#DFDFDF"/>
</linearGradient>
</defs>
</svg>
