<svg width="24" height="24" viewBox="0 0 24 24" fill="none" xmlns="http://www.w3.org/2000/svg">
<path d="M21.0007 7.66794C21.0007 5.03073 19.0556 3.00687 16.4061 3.00515L7.66055 3C4.98531 3 2.99902 4.99466 2.99902 7.66966V16.3888C2.99902 18.8078 4.74538 21 7.25952 21H16.7351C19.2492 21 21.0007 18.8198 21.0007 16.3647V7.66794ZM18.7471 12.25C17.2972 14.9439 15.1087 17.167 12.4489 18.6669C10.7522 19.6238 8.47632 20.3471 6.56886 19.7819C5.4189 19.4417 4.57229 18.5724 4.24495 17.4213C3.72739 15.6002 4.37177 13.4303 5.25267 11.793C6.70254 9.09907 8.88934 6.87764 11.5509 5.37606C13.1687 4.46206 15.2818 3.78515 17.1207 4.17515C18.4266 4.45347 19.4275 5.38122 19.7719 6.67319C20.2552 8.49088 19.6246 10.6161 18.7471 12.2465V12.25Z" fill="#ECECEC"/>
<path d="M12.8431 9.43238L11.9999 6.8175L11.1841 9.3396C10.9459 10.2261 10.2707 10.9133 9.39491 11.1848L6.81736 12.0215L9.32293 12.8393C10.2227 13.0918 10.9322 13.7842 11.1773 14.693L11.9999 17.2203L12.8396 14.6123C13.0899 13.7962 13.7188 13.1571 14.5243 12.8857L17.1755 12.0215L14.5997 11.1779C13.7582 10.9271 13.1001 10.2725 12.8396 9.43066L12.8431 9.43238Z" fill="#ECECEC"/>
<path d="M17.0947 8.67954C17.5806 8.19244 17.5806 7.40269 17.0947 6.91559C16.6088 6.42848 15.821 6.42848 15.3351 6.91559C14.8492 7.40269 14.8492 8.19244 15.3351 8.67954C15.821 9.16664 16.6088 9.16664 17.0947 8.67954Z" fill="#ECECEC"/>
</svg>
