<svg width="52" height="44" viewBox="0 0 52 44" fill="none" xmlns="http://www.w3.org/2000/svg">
<foreignObject x="-6" y="-11.7" width="64" height="65.7"><div xmlns="http://www.w3.org/1999/xhtml" style="backdrop-filter:blur(5.85px);clip-path:url(#bgblur_0_2482_42737_clip_path);height:100%;width:100%"></div></foreignObject><g filter="url(#filter0_d_2482_42737)" data-figma-bg-blur-radius="11.7">
<path d="M30.7812 10.9702L39.6836 19.9995L30.7822 29.0288H29.2129V25.4673L34.4473 20.1577C34.5336 20.0701 34.5336 19.9299 34.4473 19.8423L29.2129 14.5317V10.9702H30.7812ZM22.7852 10.9702V14.5317L17.5527 19.8423C17.4665 19.9299 17.4664 20.0701 17.5527 20.1577L22.7852 25.4673V29.0288H21.2178L12.3154 19.9995L21.2188 10.9702H22.7852Z" fill="#E4ADE6"/>
<path d="M30.7812 10.9702L39.6836 19.9995L30.7822 29.0288H29.2129V25.4673L34.4473 20.1577C34.5336 20.0701 34.5336 19.9299 34.4473 19.8423L29.2129 14.5317V10.9702H30.7812ZM22.7852 10.9702V14.5317L17.5527 19.8423C17.4665 19.9299 17.4664 20.0701 17.5527 20.1577L22.7852 25.4673V29.0288H21.2178L12.3154 19.9995L21.2188 10.9702H22.7852Z" fill="url(#paint0_linear_2482_42737)" fill-opacity="0.4" style="mix-blend-mode:luminosity"/>
<path d="M30.7812 10.9702L39.6836 19.9995L30.7822 29.0288H29.2129V25.4673L34.4473 20.1577C34.5336 20.0701 34.5336 19.9299 34.4473 19.8423L29.2129 14.5317V10.9702H30.7812ZM22.7852 10.9702V14.5317L17.5527 19.8423C17.4665 19.9299 17.4664 20.0701 17.5527 20.1577L22.7852 25.4673V29.0288H21.2178L12.3154 19.9995L21.2188 10.9702H22.7852Z" stroke="url(#paint1_linear_2482_42737)" style="mix-blend-mode:soft-light" stroke-width="0.45" stroke-linejoin="round"/>
</g>
<defs>
<filter id="filter0_d_2482_42737" x="-6" y="-11.7" width="64" height="65.7" filterUnits="userSpaceOnUse" color-interpolation-filters="sRGB">
<feFlood flood-opacity="0" result="BackgroundImageFix"/>
<feColorMatrix in="SourceAlpha" type="matrix" values="0 0 0 0 0 0 0 0 0 0 0 0 0 0 0 0 0 0 127 0" result="hardAlpha"/>
<feOffset dy="2"/>
<feGaussianBlur stdDeviation="6"/>
<feComposite in2="hardAlpha" operator="out"/>
<feColorMatrix type="matrix" values="0 0 0 0 0 0 0 0 0 0 0 0 0 0 0 0 0 0 0.04 0"/>
<feBlend mode="normal" in2="BackgroundImageFix" result="effect1_dropShadow_2482_42737"/>
<feBlend mode="normal" in="SourceGraphic" in2="effect1_dropShadow_2482_42737" result="shape"/>
</filter>
<clipPath id="bgblur_0_2482_42737_clip_path" transform="translate(6 11.7)"><rect x="6" width="40" height="40" rx="8"/>
</clipPath><linearGradient id="paint0_linear_2482_42737" x1="26" y1="10.7456" x2="26" y2="29.2541" gradientUnits="userSpaceOnUse">
<stop stop-color="#CDCFEC"/>
<stop offset="1" stop-color="#5E639C"/>
</linearGradient>
<linearGradient id="paint1_linear_2482_42737" x1="26" y1="10.7456" x2="26" y2="29.2541" gradientUnits="userSpaceOnUse">
<stop stop-color="#525252"/>
<stop offset="1" stop-color="#DFDFDF"/>
</linearGradient>
</defs>
</svg>
