<svg width="64" height="64" viewBox="0 0 64 64" fill="none" xmlns="http://www.w3.org/2000/svg">
<foreignObject x="0" y="-1.7" width="64" height="65.7"><div xmlns="http://www.w3.org/1999/xhtml" style="backdrop-filter:blur(5.85px);clip-path:url(#bgblur_0_2464_52426_clip_path);height:100%;width:100%"></div></foreignObject><g filter="url(#filter0_d_2464_52426)" data-figma-bg-blur-radius="11.7">
<rect x="12" y="10" width="40" height="40" rx="8" fill="#EF7758" shape-rendering="crispEdges"/>
<rect x="12.5" y="10.5" width="39" height="39" rx="7.5" stroke="url(#paint0_linear_2464_52426)" stroke-opacity="0.4" style="mix-blend-mode:luminosity" shape-rendering="crispEdges"/>
<path d="M31.9996 17L21.3633 21.7273V28.8182C21.3633 35.3773 25.9015 41.5109 31.9996 43C38.0978 41.5109 42.636 35.3773 42.636 28.8182V21.7273L31.9996 17ZM31.9996 24.0909C33.6542 24.0909 35.3087 25.3909 35.3087 27.0455V28.8182C36.0178 28.8182 36.7269 29.5273 36.7269 30.3545V34.4909C36.7269 35.2 36.0178 35.9091 35.1906 35.9091H28.6906C27.9815 35.9091 27.2724 35.2 27.2724 34.3727V30.2364C27.2724 29.5273 27.9815 28.8182 28.6906 28.8182V27.0455C28.6906 25.3909 30.3451 24.0909 31.9996 24.0909ZM31.9996 25.5091C31.0542 25.5091 30.2269 26.1 30.2269 27.0455V28.8182H33.7724V27.0455C33.7724 26.1 32.9451 25.5091 31.9996 25.5091Z" fill="#797979" style="mix-blend-mode:luminosity"/>
</g>
<defs>
<filter id="filter0_d_2464_52426" x="0" y="-1.7" width="64" height="65.7" filterUnits="userSpaceOnUse" color-interpolation-filters="sRGB">
<feFlood flood-opacity="0" result="BackgroundImageFix"/>
<feColorMatrix in="SourceAlpha" type="matrix" values="0 0 0 0 0 0 0 0 0 0 0 0 0 0 0 0 0 0 127 0" result="hardAlpha"/>
<feOffset dy="2"/>
<feGaussianBlur stdDeviation="6"/>
<feComposite in2="hardAlpha" operator="out"/>
<feColorMatrix type="matrix" values="0 0 0 0 0 0 0 0 0 0 0 0 0 0 0 0 0 0 0.04 0"/>
<feBlend mode="normal" in2="BackgroundImageFix" result="effect1_dropShadow_2464_52426"/>
<feBlend mode="normal" in="SourceGraphic" in2="effect1_dropShadow_2464_52426" result="shape"/>
</filter>
<clipPath id="bgblur_0_2464_52426_clip_path" transform="translate(0 1.7)"><rect x="12" y="10" width="40" height="40" rx="8"/>
</clipPath><linearGradient id="paint0_linear_2464_52426" x1="32" y1="10" x2="32" y2="50" gradientUnits="userSpaceOnUse">
<stop stop-color="#DFDFDF"/>
<stop offset="1" stop-color="#797979"/>
</linearGradient>
</defs>
</svg>
