<?xml version="1.0" encoding="UTF-8"?>
<svg xmlns="http://www.w3.org/2000/svg" viewBox="0 0 512 512">
  <rect width="512" height="512" rx="96" fill="#1b112e"/>
  <path fill="#ffffff" transform="translate(66,66) scale(0.74)" d="M373.87,393.72c-1.55-1.63-1.54-4.19.02-5.81l26.31-27.35c1.79-1.86,1.49-4.89-.63-6.36l-25.78-17.97,53.43-22.25c5.05-2.11,8.34-7.05,8.33-12.52l-.13-67.28c-.01-5.46-3.3-10.37-8.33-12.47l-41.65-17.34c29.49-10.26,46.31-29.72,49.11-57.56.34-3.4-2.38-6.35-5.79-6.35h-51.68c-2.64,0-5.01,1.77-5.61,4.34-3.44,14.81-17.34,26.95-45.12,26.95-35.93,0-53.63-16.8-53.63-45.77s17.71-45.76,53.63-45.76c27.24,0,41.32,12.39,45.11,23.89.78,2.38,2.99,3.99,5.49,3.99h51.29c3.44,0,6.18-2.99,5.78-6.4-4.68-39.65-41.71-62.52-107.59-62.52-.64,0-1.27.02-1.9.02-.08,0-.15-.02-.24-.02H83.99c-3.2,0-5.8,2.6-5.8,5.8v147.96c0,3.2,2.6,5.8,5.8,5.8h40.43c3.2,0,5.8-2.6,5.8-5.8v-40.28c0-3.2,2.6-5.8,5.8-5.8h81.44c1.47,7.45,3.79,14.23,6.88,20.37-11.22,2.38-22.29,6-33.07,10.91l-104.58,43.58c-5.03,2.1-8.32,7.01-8.33,12.47l-.15,67.24c-.01,5.48,3.28,10.43,8.34,12.53l53.46,22.23-25.82,18c-2.12,1.48-2.42,4.5-.63,6.36l26.31,27.35c1.56,1.62,1.57,4.18.02,5.81l-67.18,70.58c-3.14,3.3.47,8.54,4.67,6.78l135.64-56.77c2.73-1.14,3.46-4.66,1.41-6.79l-18.89-19.63c-1.78-1.85-1.5-4.85.59-6.34l20.1-14.36c26.48,8.15,54.82,8.03,81.33,0l20.1,14.36c2.09,1.49,2.36,4.49.59,6.34l-18.89,19.63c-2.05,2.13-1.32,5.65,1.41,6.79l135.64,56.77c4.2,1.76,7.81-3.48,4.67-6.78l-67.18-70.58ZM130.22,103.91v-19.1c0-3.2,2.6-5.8,5.8-5.8h91.51c-5.47,8.73-9.13,18.94-10.85,30.7h-80.66c-3.2,0-5.8-2.6-5.8-5.8ZM237.17,212.09c10.9,0,19.73,8.83,19.73,19.73s-8.83,19.73-19.73,19.73-19.73-8.83-19.73-19.73,8.83-19.73,19.73-19.73ZM218.19,312.68l-84.27-35.2c-2.19-.92-3.63-3.05-3.64-5.43l-.06-8.29c-.02-2.42,1.44-4.6,3.67-5.52l36.92-15.21c4.9-2.02,10.43.81,11.68,5.96,8.3,34.36,38.25,58.63,73.44,59.04,35.79.42,66.98-23.78,75.34-59.05,1.22-5.15,6.76-7.98,11.66-5.98l36.6,14.96c2.19.9,3.64,3.01,3.68,5.37l.17,8.71c.05,2.44-1.41,4.66-3.67,5.59l-92.58,38.2c-23.13,9.54-47.46,5.81-68.93-3.16Z"/>
  <path fill="#ffffff" transform="translate(66,66) scale(0.74)" d="M448.92,336.2c-21.86,2.18-39.54,19.86-41.72,41.72-2.95,29.53,21.76,54.24,51.29,51.3,21.86-2.18,39.54-19.86,41.72-41.72,2.95-29.53-21.76-54.25-51.29-51.3ZM450.08,417.94c-16.56-1.65-29.95-15.04-31.61-31.6-2.24-22.37,16.48-41.09,38.85-38.86,16.56,1.65,29.95,15.04,31.61,31.6,2.24,22.37-16.48,41.09-38.85,38.86Z"/>
  <path fill="#ffffff" transform="translate(66,66) scale(0.74)" d="M480.89,386.5h-13.55c-.69,0-1.31.46-1.47,1.14-.9,3.88-4.55,7.07-11.83,7.07-9.42,0-14.06-4.41-14.06-12s4.64-12,14.06-12c7.14,0,10.84,3.25,11.83,6.26.21.62.78,1.05,1.44,1.05h13.45c.9,0,1.62-.78,1.52-1.68-1.23-10.4-10.94-16.39-28.21-16.39-18.31,0-29.08,7.19-29.08,22.76s10.78,22.76,29.08,22.76c17.35,0,27.22-6.05,28.35-17.3.09-.89-.62-1.66-1.52-1.66Z"/>
</svg>